<svg width="20" height="21" viewBox="0 0 20 21" fill="none" xmlns="http://www.w3.org/2000/svg">
<path d="M17.4184 10.9454C17.4996 10.7327 17.5208 10.4987 17.4794 10.2729C17.438 10.0471 17.3359 9.83975 17.1859 9.67701L12.8999 5.02225C12.8011 4.91111 12.6829 4.82246 12.5521 4.76147C12.4214 4.70048 12.2808 4.66838 12.1385 4.66704C11.9963 4.66569 11.8552 4.69514 11.7235 4.75365C11.5918 4.81216 11.4722 4.89857 11.3716 5.00783C11.271 5.11709 11.1914 5.24702 11.1375 5.39003C11.0836 5.53305 11.0565 5.68628 11.0578 5.84079C11.059 5.99531 11.0886 6.14801 11.1447 6.28998C11.2009 6.43196 11.2825 6.56036 11.3848 6.66771L13.8429 9.33722H3.5715C3.28732 9.33722 3.01478 9.45982 2.81383 9.67805C2.61289 9.89629 2.5 10.1923 2.5 10.5009C2.5 10.8095 2.61289 11.1055 2.81383 11.3238C3.01478 11.542 3.28732 11.6646 3.5715 11.6646H13.8429L11.3859 14.3329C11.2836 14.4403 11.202 14.5687 11.1458 14.7107C11.0896 14.8526 11.0601 15.0053 11.0588 15.1599C11.0576 15.3144 11.0847 15.4676 11.1386 15.6106C11.1925 15.7536 11.272 15.8836 11.3726 15.9928C11.4732 16.1021 11.5929 16.1885 11.7246 16.247C11.8562 16.3055 11.9973 16.335 12.1396 16.3336C12.2819 16.3323 12.4225 16.3002 12.5532 16.2392C12.6839 16.1782 12.8022 16.0895 12.901 15.9784L17.187 11.3236C17.2863 11.2153 17.3649 11.0868 17.4184 10.9454Z" fill="#1F1F1F"/>
</svg>
