<svg width="40" height="8" viewBox="0 0 40 8" fill="none" xmlns="http://www.w3.org/2000/svg">
<g id="Get it on">
<path d="M6.4189 4.24246C6.4189 5.08046 6.1709 5.74746 5.6739 6.24546C5.1099 6.83746 4.37391 7.13346 3.46991 7.13346C2.60391 7.13346 1.86691 6.83345 1.26191 6.23345C0.655906 5.63245 0.352905 4.88845 0.352905 4.00045C0.352905 3.11145 0.655906 2.36746 1.26191 1.76745C1.86691 1.16645 2.60391 0.866456 3.46991 0.866456C3.89991 0.866456 4.3109 0.950455 4.7009 1.11746C5.0919 1.28546 5.4049 1.50846 5.6389 1.78746L5.1119 2.31546C4.7149 1.84046 4.1679 1.60346 3.4689 1.60346C2.8369 1.60346 2.2909 1.82546 1.8299 2.26946C1.3689 2.71346 1.1389 3.29046 1.1389 3.99946C1.1389 4.70846 1.3689 5.28545 1.8299 5.72945C2.2909 6.17345 2.8369 6.39545 3.4689 6.39545C4.1389 6.39545 4.69791 6.17245 5.14491 5.72545C5.43491 5.43445 5.6029 5.02945 5.6479 4.51045H3.4689V3.78946H6.3759C6.4059 3.94646 6.4189 4.09746 6.4189 4.24246Z" fill="white"/>
<path d="M11.029 1.73651H8.297V3.63851H10.761V4.35951H8.297V6.26151H11.029V6.99951H7.526V0.999512H11.029V1.73651Z" fill="white"/>
<path d="M14.2799 6.99951H13.5089V1.73651H11.8329V0.999512H15.9559V1.73651H14.2799V6.99951Z" fill="white"/>
<path d="M18.9388 6.99951V0.999512H19.7098V6.99951H18.9388Z" fill="white"/>
<path d="M23.129 6.99951H22.358V1.73651H20.682V0.999512H24.805V1.73651H23.129V6.99951Z" fill="white"/>
<path d="M32.6098 6.2245C32.0198 6.8305 31.2868 7.1335 30.4098 7.1335C29.5328 7.1335 28.7998 6.8305 28.2108 6.2245C27.6208 5.6185 27.3268 4.8765 27.3268 3.9995C27.3268 3.1225 27.6208 2.3805 28.2108 1.7745C28.7998 1.1685 29.5328 0.864502 30.4098 0.864502C31.2818 0.864502 32.0138 1.1695 32.6058 1.7785C33.1978 2.3875 33.4938 3.1275 33.4938 3.9995C33.4938 4.8765 33.1988 5.6185 32.6098 6.2245ZM28.7798 5.7215C29.2238 6.1715 29.7668 6.3955 30.4098 6.3955C31.0528 6.3955 31.5968 6.1705 32.0398 5.7215C32.4838 5.2715 32.7068 4.6975 32.7068 3.9995C32.7068 3.3015 32.4838 2.7275 32.0398 2.2775C31.5968 1.8275 31.0528 1.6035 30.4098 1.6035C29.7668 1.6035 29.2238 1.8285 28.7798 2.2775C28.3368 2.7275 28.1138 3.3015 28.1138 3.9995C28.1138 4.6975 28.3368 5.2715 28.7798 5.7215Z" fill="white"/>
<path d="M34.5758 6.99951V0.999512H35.5138L38.4298 5.66651H38.4628L38.4298 4.51051V0.999512H39.2008V6.99951H38.3958L35.3448 2.10551H35.3118L35.3448 3.26151V6.99951H34.5758Z" fill="white"/>
<path d="M6.4189 4.24246C6.4189 5.08046 6.1709 5.74746 5.6739 6.24546C5.1099 6.83746 4.37391 7.13346 3.46991 7.13346C2.60391 7.13346 1.86691 6.83345 1.26191 6.23345C0.655906 5.63245 0.352905 4.88845 0.352905 4.00045C0.352905 3.11145 0.655906 2.36746 1.26191 1.76745C1.86691 1.16645 2.60391 0.866456 3.46991 0.866456C3.89991 0.866456 4.3109 0.950455 4.7009 1.11746C5.0919 1.28546 5.4049 1.50846 5.6389 1.78746L5.1119 2.31546C4.7149 1.84046 4.1679 1.60346 3.4689 1.60346C2.8369 1.60346 2.2909 1.82546 1.8299 2.26946C1.3689 2.71346 1.1389 3.29046 1.1389 3.99946C1.1389 4.70846 1.3689 5.28545 1.8299 5.72945C2.2909 6.17345 2.8369 6.39545 3.4689 6.39545C4.1389 6.39545 4.69791 6.17245 5.14491 5.72545C5.43491 5.43445 5.6029 5.02945 5.6479 4.51045H3.4689V3.78946H6.3759C6.4059 3.94646 6.4189 4.09746 6.4189 4.24246Z" stroke="white" stroke-width="0.2" stroke-miterlimit="10"/>
<path d="M11.029 1.73651H8.297V3.63851H10.761V4.35951H8.297V6.26151H11.029V6.99951H7.526V0.999512H11.029V1.73651Z" stroke="white" stroke-width="0.2" stroke-miterlimit="10"/>
<path d="M14.2799 6.99951H13.5089V1.73651H11.8329V0.999512H15.9559V1.73651H14.2799V6.99951Z" stroke="white" stroke-width="0.2" stroke-miterlimit="10"/>
<path d="M18.9388 6.99951V0.999512H19.7098V6.99951H18.9388Z" stroke="white" stroke-width="0.2" stroke-miterlimit="10"/>
<path d="M23.129 6.99951H22.358V1.73651H20.682V0.999512H24.805V1.73651H23.129V6.99951Z" stroke="white" stroke-width="0.2" stroke-miterlimit="10"/>
<path d="M32.6098 6.2245C32.0198 6.8305 31.2868 7.1335 30.4098 7.1335C29.5328 7.1335 28.7998 6.8305 28.2108 6.2245C27.6208 5.6185 27.3268 4.8765 27.3268 3.9995C27.3268 3.1225 27.6208 2.3805 28.2108 1.7745C28.7998 1.1685 29.5328 0.864502 30.4098 0.864502C31.2818 0.864502 32.0138 1.1695 32.6058 1.7785C33.1978 2.3875 33.4938 3.1275 33.4938 3.9995C33.4938 4.8765 33.1988 5.6185 32.6098 6.2245ZM28.7798 5.7215C29.2238 6.1715 29.7668 6.3955 30.4098 6.3955C31.0528 6.3955 31.5968 6.1705 32.0398 5.7215C32.4838 5.2715 32.7068 4.6975 32.7068 3.9995C32.7068 3.3015 32.4838 2.7275 32.0398 2.2775C31.5968 1.8275 31.0528 1.6035 30.4098 1.6035C29.7668 1.6035 29.2238 1.8285 28.7798 2.2775C28.3368 2.7275 28.1138 3.3015 28.1138 3.9995C28.1138 4.6975 28.3368 5.2715 28.7798 5.7215Z" stroke="white" stroke-width="0.2" stroke-miterlimit="10"/>
<path d="M34.5758 6.99951V0.999512H35.5138L38.4298 5.66651H38.4628L38.4298 4.51051V0.999512H39.2008V6.99951H38.3958L35.3448 2.10551H35.3118L35.3448 3.26151V6.99951H34.5758Z" stroke="white" stroke-width="0.2" stroke-miterlimit="10"/>
</g>
</svg>
