<svg width="85" height="18" viewBox="0 0 85 18" fill="none" xmlns="http://www.w3.org/2000/svg">
<path id="Google Play" d="M27.1368 4.75063C24.7848 4.75063 22.8678 6.53963 22.8678 9.00363C22.8678 11.4526 24.7848 13.2566 27.1368 13.2566C29.4898 13.2566 31.4068 11.4526 31.4068 9.00363C31.4058 6.53963 29.4888 4.75063 27.1368 4.75063ZM27.1368 11.5826C25.8478 11.5826 24.7368 10.5196 24.7368 9.00463C24.7368 7.47363 25.8488 6.42663 27.1368 6.42663C28.4258 6.42663 29.5368 7.47363 29.5368 9.00463C29.5368 10.5186 28.4258 11.5826 27.1368 11.5826ZM17.8228 4.75063C15.4708 4.75063 13.5538 6.53963 13.5538 9.00363C13.5538 11.4526 15.4708 13.2566 17.8228 13.2566C20.1758 13.2566 22.0928 11.4526 22.0928 9.00363C22.0928 6.53963 20.1758 4.75063 17.8228 4.75063ZM17.8228 11.5826C16.5338 11.5826 15.4228 10.5196 15.4228 9.00463C15.4228 7.47363 16.5348 6.42663 17.8228 6.42663C19.1118 6.42663 20.2228 7.47363 20.2228 9.00463C20.2238 10.5186 19.1118 11.5826 17.8228 11.5826ZM6.74485 6.05663V7.86063H11.0628C10.9338 8.87563 10.5958 9.61663 10.0798 10.1316C9.45185 10.7596 8.46885 11.4526 6.74485 11.4526C4.08685 11.4526 2.00885 9.30963 2.00885 6.65163C2.00885 3.99363 4.08685 1.85063 6.74485 1.85063C8.17885 1.85063 9.22585 2.41463 9.99885 3.13963L11.2718 1.86663C10.1918 0.835631 8.75885 0.0466317 6.74485 0.0466317C3.10385 0.0466317 0.0428465 3.01063 0.0428465 6.65163C0.0428465 10.2926 3.10385 13.2566 6.74485 13.2566C8.70985 13.2566 10.1928 12.6116 11.3518 11.4036C12.5438 10.2116 12.9148 8.53563 12.9148 7.18263C12.9148 6.76463 12.8828 6.37763 12.8178 6.05563H6.74485V6.05663ZM52.0528 7.45763C51.6988 6.50763 50.6189 4.75063 48.4118 4.75063C46.2208 4.75063 44.3998 6.47463 44.3998 9.00363C44.3998 11.3876 46.2048 13.2566 48.6208 13.2566C50.5699 13.2566 51.6978 12.0646 52.1658 11.3716L50.7158 10.4046C50.2328 11.1136 49.5718 11.5806 48.6208 11.5806C47.6708 11.5806 46.9938 11.1456 46.5588 10.2916L52.2458 7.93963L52.0528 7.45763ZM46.2528 8.87563C46.2048 7.23163 47.5258 6.39463 48.4768 6.39463C49.2178 6.39463 49.8458 6.76563 50.0558 7.29663L46.2528 8.87563ZM41.6298 12.9996H43.4978V0.498631H41.6298V12.9996ZM38.5678 5.70163H38.5038C38.0848 5.20163 37.2788 4.75063 36.2648 4.75063C34.1378 4.75063 32.1889 6.61963 32.1889 9.02063C32.1889 11.4046 34.1378 13.2576 36.2648 13.2576C37.2798 13.2576 38.0848 12.8066 38.5038 12.2916H38.5678V12.9036C38.5678 14.5306 37.6978 15.4006 36.2968 15.4006C35.1528 15.4006 34.4438 14.5796 34.1538 13.8866L32.5268 14.5636C32.9938 15.6906 34.2338 17.0766 36.2968 17.0766C38.4878 17.0766 40.3408 15.7876 40.3408 12.6456V5.00963H38.5688V5.70163H38.5678ZM36.4258 11.5826C35.1368 11.5826 34.0578 10.5026 34.0578 9.02063C34.0578 7.52163 35.1368 6.42663 36.4258 6.42663C37.6978 6.42663 38.6968 7.52163 38.6968 9.02063C38.6968 10.5026 37.6978 11.5826 36.4258 11.5826ZM60.8068 0.498631H56.3358V12.9996H58.2008V8.26363H60.8058C62.8738 8.26363 64.9078 6.76663 64.9078 4.38163C64.9078 1.99663 62.8748 0.498631 60.8068 0.498631ZM60.8548 6.52363H58.2008V2.23863H60.8548C62.2498 2.23863 63.0418 3.39363 63.0418 4.38163C63.0418 5.34963 62.2498 6.52363 60.8548 6.52363ZM72.3868 4.72863C71.0359 4.72863 69.6368 5.32363 69.0578 6.64263L70.7138 7.33363C71.0678 6.64263 71.7278 6.41663 72.4188 6.41663C73.3838 6.41663 74.3648 6.99563 74.3808 8.02463V8.15363C74.0428 7.96063 73.3188 7.67163 72.4348 7.67163C70.6498 7.67163 68.8318 8.65263 68.8318 10.4856C68.8318 12.1586 70.2958 13.2356 71.9358 13.2356C73.1898 13.2356 73.8819 12.6726 74.3158 12.0126H74.3798V12.9776H76.1818V8.18463C76.1828 5.96663 74.5248 4.72863 72.3868 4.72863ZM72.1609 11.5796C71.5508 11.5796 70.6978 11.2736 70.6978 10.5176C70.6978 9.55263 71.7598 9.18263 72.6768 9.18263C73.4958 9.18263 73.8828 9.35963 74.3808 9.60063C74.2358 10.7596 73.2389 11.5796 72.1609 11.5796ZM82.7438 5.00163L80.6049 10.4216H80.5408L78.3209 5.00163H76.3108L79.6399 12.5766L77.7418 16.7906H79.6878L84.8188 5.00163H82.7438ZM65.9378 12.9996H67.8028V0.498631H65.9378V12.9996Z" fill="white"/>
</svg>
