<svg width="560" height="291" viewBox="0 0 560 291" fill="none" xmlns="http://www.w3.org/2000/svg">
<g filter="url(#filter0_b_864_1066)">
<rect width="560" height="291" fill="#D1D5DB"/>
</g>
<rect x="120.5" y="278" width="134" height="5" rx="2.5" fill="black" fill-opacity="0.2"/>
<path fill-rule="evenodd" clip-rule="evenodd" d="M494.045 251.332C494.733 251.332 495.29 251.705 495.29 252.165C495.29 252.193 495.288 252.22 495.284 252.247V254.542H495.277V254.549C495.277 254.564 495.279 254.58 495.28 254.596C495.282 254.61 495.283 254.624 495.284 254.639V254.952H495.307C495.677 257.916 499.299 260.226 503.737 260.329H504.24C508.68 260.228 512.304 257.917 512.673 254.952H512.702V252.175L512.712 252.175L512.712 252.165C512.712 251.705 513.269 251.332 513.956 251.332C514.644 251.332 515.201 251.705 515.201 252.165C515.201 252.189 515.199 252.213 515.196 252.236V254.282H515.181H515.181C515.185 258.111 510.912 261.336 505.235 261.79V264.323H509.924V264.334C509.941 264.333 509.957 264.333 509.974 264.333C510.661 264.333 511.219 264.706 511.219 265.167C511.219 265.627 510.661 266 509.974 266C509.957 266 509.941 266 509.924 265.999V266H498.072V265.999C498.057 266 498.042 266 498.027 266C497.34 266 496.783 265.627 496.783 265.167C496.783 264.706 497.34 264.333 498.027 264.333C498.042 264.333 498.057 264.333 498.072 264.334V264.323H502.771V261.79C497.083 261.347 492.794 258.118 492.801 254.282C492.801 254.262 492.803 254.243 492.806 254.225L492.806 254.225C492.808 254.209 492.81 254.194 492.81 254.179V252.268C492.804 252.235 492.801 252.2 492.801 252.165C492.801 251.705 493.358 251.332 494.045 251.332ZM510.711 252.879C510.711 253.382 510.711 253.912 510.671 254.415C510.64 254.869 510.537 255.32 510.362 255.759C509.973 256.681 509.142 257.491 507.998 258.066C505.651 259.306 502.341 259.306 499.994 258.066C498.847 257.493 498.015 256.682 497.628 255.759C497.453 255.32 497.35 254.869 497.32 254.415C497.277 253.912 497.281 253.382 497.281 252.879V248.665C497.281 248.165 497.285 245.955 497.281 245.581C497.3 245.125 497.418 244.672 497.629 244.238C498.426 242.324 501.029 241 503.996 241C506.963 241 509.566 242.324 510.363 244.238C510.551 244.676 510.667 245.126 510.712 245.581C510.757 246.085 510.712 248.165 510.712 248.665V252.879H510.711ZM508.222 253.665C508.222 253.985 508.212 254.092 508.182 254.412C508.165 254.703 508.1 254.991 507.988 255.272C507.75 255.862 507.231 256.384 506.51 256.759C505.032 257.528 502.964 257.528 501.487 256.759C500.763 256.385 500.242 255.863 500.004 255.272C499.894 254.991 499.829 254.703 499.809 254.412C499.785 254.092 499.78 253.985 499.78 253.665C499.78 249.232 499.75 245.945 499.79 245.591C499.818 245.3 499.89 245.012 500.004 244.731C500.242 244.14 500.763 243.618 501.487 243.244C502.964 242.475 505.032 242.475 506.51 243.244C507.231 243.619 507.75 244.141 507.988 244.731C508.114 245.011 508.195 245.3 508.227 245.591C508.262 245.971 508.222 249.218 508.222 253.665Z" fill="#50555C"/>
<path fill-rule="evenodd" clip-rule="evenodd" d="M57.494 240C68.628 240 77.654 246.044 77.654 253.5C77.654 260.956 68.628 267 57.494 267C46.3599 267 37.334 260.956 37.334 253.5C37.334 246.044 46.3599 240 57.494 240ZM57.494 241.573C67.3307 241.573 75.3041 246.914 75.3033 253.501C75.3026 260.088 67.328 265.427 57.4913 265.427C47.6546 265.427 39.6806 260.087 39.6806 253.5C39.6807 250.336 41.5576 247.303 44.8983 245.066C48.239 242.829 52.7698 241.572 57.494 241.573ZM51.1164 247.644C50.4932 247.639 49.8932 247.802 49.4505 248.096C49.0078 248.389 48.7595 248.79 48.7612 249.207C48.7612 250.078 49.8156 250.784 51.1164 250.784C52.4171 250.784 53.4716 250.078 53.4716 249.207C53.4732 248.79 53.2249 248.389 52.7822 248.096C52.3396 247.802 51.7395 247.639 51.1164 247.644ZM70.9291 255.825C69.8556 259.71 64.2567 262.953 57.4915 262.953C50.7802 262.953 45.214 259.757 44.0775 255.917C43.8472 254.958 45.0195 254.732 46.1237 254.911C49.8178 255.626 53.6488 255.974 57.494 255.943C61.3304 255.973 65.1527 255.626 68.839 254.914C69.9125 254.732 71.0622 254.938 70.9291 255.825ZM67.2847 256.365C67.1799 256.392 67.0735 256.413 66.9662 256.436C66.9551 256.44 67.3099 256.362 67.2993 256.365C64.1117 256.953 60.8166 257.238 57.5106 257.212C53.5653 257.212 50.0368 256.919 47.6085 256.335C45.8481 255.984 46.1857 257.371 47.4231 257.796C50.5884 258.761 54.0324 259.248 57.5101 259.221C61.6469 259.221 65.3332 258.576 67.768 257.742C68.9202 257.246 69.148 255.916 67.2847 256.365ZM63.8847 247.644C63.2615 247.639 62.6614 247.802 62.2187 248.096C61.7759 248.389 61.5275 248.79 61.529 249.207C61.5166 249.776 61.9628 250.305 62.6967 250.592C63.4306 250.879 64.3383 250.879 65.0722 250.592C65.8061 250.305 66.2523 249.776 66.2399 249.207C66.2414 248.79 65.9931 248.389 65.5504 248.096C65.1078 247.802 64.5078 247.639 63.8847 247.644Z" fill="#50555C"/>
<g filter="url(#filter1_d_864_1066)">
<path fill-rule="evenodd" clip-rule="evenodd" d="M424.107 177.36C424.107 174.784 424.107 173.496 424.609 172.512C425.05 171.646 425.754 170.942 426.619 170.501C427.603 170 428.891 170 431.467 170H547.747C550.324 170 551.612 170 552.596 170.501C553.461 170.942 554.165 171.646 554.606 172.512C555.107 173.496 555.107 174.784 555.107 177.36V204.64C555.107 207.216 555.107 208.504 554.606 209.488C554.165 210.354 553.461 211.058 552.596 211.499C551.612 212 550.324 212 547.747 212H431.467C428.891 212 427.603 212 426.619 211.499C425.754 211.058 425.05 210.354 424.609 209.488C424.107 208.504 424.107 207.216 424.107 204.64V177.36Z" fill="#ADB3BC"/>
</g>
<path d="M485.15 191.281H489.76V195.578C489.51 195.849 489.187 196.115 488.791 196.375C488.395 196.625 487.937 196.833 487.416 197C486.905 197.156 486.343 197.234 485.728 197.234C484.937 197.234 484.208 197.094 483.541 196.812C482.874 196.521 482.291 196.125 481.791 195.625C481.291 195.125 480.9 194.547 480.619 193.891C480.348 193.224 480.213 192.516 480.213 191.766C480.213 191.016 480.348 190.312 480.619 189.656C480.9 188.99 481.291 188.406 481.791 187.906C482.291 187.406 482.874 187.016 483.541 186.734C484.208 186.443 484.937 186.297 485.728 186.297C486.489 186.297 487.109 186.401 487.588 186.609C488.077 186.818 488.504 187.089 488.869 187.422V188.969C488.64 188.802 488.379 188.62 488.088 188.422C487.806 188.224 487.473 188.052 487.088 187.906C486.713 187.75 486.26 187.672 485.728 187.672C484.947 187.672 484.249 187.849 483.635 188.203C483.02 188.557 482.536 189.047 482.181 189.672C481.827 190.286 481.65 190.984 481.65 191.766C481.65 192.547 481.827 193.245 482.181 193.859C482.536 194.474 483.02 194.964 483.635 195.328C484.249 195.682 484.947 195.859 485.728 195.859C486.26 195.859 486.687 195.807 487.01 195.703C487.333 195.589 487.588 195.464 487.775 195.328C487.963 195.182 488.114 195.062 488.228 194.969L488.244 192.531H485.15V191.281ZM494.924 189.031C495.716 189.031 496.419 189.219 497.033 189.594C497.648 189.969 498.127 190.469 498.471 191.094C498.825 191.719 499.002 192.401 499.002 193.141C499.002 193.88 498.825 194.562 498.471 195.188C498.127 195.802 497.648 196.297 497.033 196.672C496.419 197.047 495.716 197.234 494.924 197.234C494.132 197.234 493.429 197.047 492.815 196.672C492.2 196.297 491.716 195.802 491.361 195.188C491.018 194.562 490.846 193.88 490.846 193.141C490.846 192.401 491.018 191.719 491.361 191.094C491.716 190.469 492.2 189.969 492.815 189.594C493.429 189.219 494.132 189.031 494.924 189.031ZM494.924 190.281C494.372 190.281 493.888 190.417 493.471 190.688C493.054 190.948 492.731 191.297 492.502 191.734C492.283 192.161 492.174 192.63 492.174 193.141C492.174 193.641 492.283 194.109 492.502 194.547C492.731 194.974 493.054 195.323 493.471 195.594C493.888 195.854 494.372 195.984 494.924 195.984C495.486 195.984 495.971 195.854 496.377 195.594C496.794 195.323 497.111 194.974 497.33 194.547C497.559 194.109 497.674 193.641 497.674 193.141C497.674 192.63 497.559 192.161 497.33 191.734C497.111 191.297 496.794 190.948 496.377 190.688C495.971 190.417 495.486 190.281 494.924 190.281Z" fill="#181C2E"/>
<g filter="url(#filter2_d_864_1066)">
<path fill-rule="evenodd" clip-rule="evenodd" d="M143.361 177.36C143.361 174.784 143.361 173.496 143.863 172.512C144.304 171.646 145.007 170.942 145.873 170.501C146.857 170 148.145 170 150.721 170H408.001C410.578 170 411.866 170 412.85 170.501C413.715 170.942 414.419 171.646 414.86 172.512C415.361 173.496 415.361 174.784 415.361 177.36V204.64C415.361 207.216 415.361 208.504 414.86 209.488C414.419 210.354 413.715 211.058 412.85 211.499C411.866 212 410.578 212 408.001 212H150.721C148.145 212 146.857 212 145.873 211.499C145.007 211.058 144.304 210.354 143.863 209.488C143.361 208.504 143.361 207.216 143.361 204.64V177.36Z" fill="#FCFCFE"/>
</g>
<path d="M262.142 189.031C262.6 189.031 263.027 189.099 263.423 189.234C263.819 189.359 264.105 189.49 264.283 189.625V191C264.064 190.833 263.767 190.672 263.392 190.516C263.017 190.359 262.632 190.281 262.236 190.281C261.746 190.281 261.376 190.396 261.126 190.625C260.887 190.854 260.767 191.094 260.767 191.344C260.767 191.542 260.835 191.745 260.97 191.953C261.116 192.151 261.366 192.312 261.72 192.438L263.033 192.906C263.543 193.083 263.923 193.339 264.173 193.672C264.423 194.005 264.548 194.396 264.548 194.844C264.548 195.281 264.423 195.682 264.173 196.047C263.934 196.411 263.595 196.703 263.158 196.922C262.73 197.13 262.236 197.234 261.673 197.234C261.371 197.234 261.053 197.193 260.72 197.109C260.397 197.036 260.105 196.948 259.845 196.844C259.585 196.729 259.392 196.63 259.267 196.547V195.172C259.413 195.276 259.616 195.396 259.876 195.531C260.147 195.656 260.434 195.766 260.736 195.859C261.038 195.943 261.319 195.984 261.579 195.984C262.069 195.984 262.454 195.875 262.736 195.656C263.027 195.438 263.173 195.167 263.173 194.844C263.173 194.594 263.074 194.396 262.876 194.25C262.689 194.104 262.413 193.964 262.048 193.828L260.892 193.406C260.288 193.177 259.887 192.891 259.689 192.547C259.491 192.193 259.392 191.792 259.392 191.344C259.392 190.677 259.642 190.125 260.142 189.688C260.642 189.25 261.309 189.031 262.142 189.031ZM270.15 189.031C270.827 189.031 271.437 189.198 271.978 189.531C272.53 189.854 272.968 190.312 273.291 190.906C273.624 191.49 273.791 192.177 273.791 192.969C273.791 193.823 273.624 194.573 273.291 195.219C272.968 195.854 272.52 196.349 271.947 196.703C271.384 197.057 270.744 197.234 270.025 197.234C269.577 197.234 269.119 197.115 268.65 196.875C268.192 196.635 267.796 196.328 267.463 195.953V200.75H266.181V189.188H267.463V190.516C267.733 190.099 268.098 189.75 268.556 189.469C269.025 189.177 269.556 189.031 270.15 189.031ZM269.947 190.281C269.478 190.281 269.051 190.401 268.666 190.641C268.291 190.88 267.994 191.214 267.775 191.641C267.567 192.057 267.463 192.547 267.463 193.109L267.478 194.609C267.812 195.016 268.16 195.349 268.525 195.609C268.89 195.859 269.312 195.984 269.791 195.984C270.353 195.984 270.832 195.839 271.228 195.547C271.624 195.255 271.926 194.88 272.134 194.422C272.353 193.953 272.463 193.469 272.463 192.969C272.463 192.458 272.358 192.005 272.15 191.609C271.942 191.203 271.65 190.88 271.275 190.641C270.9 190.401 270.457 190.281 269.947 190.281ZM278.799 189.031C279.247 189.031 279.7 189.141 280.158 189.359C280.627 189.568 281.028 189.859 281.361 190.234V189.188H282.643V197H281.361V195.672C281.09 196.089 280.721 196.453 280.252 196.766C279.794 197.078 279.268 197.234 278.674 197.234C278.007 197.234 277.398 197.068 276.846 196.734C276.294 196.391 275.851 195.917 275.518 195.312C275.195 194.708 275.033 194.01 275.033 193.219C275.033 192.354 275.195 191.609 275.518 190.984C275.851 190.359 276.304 189.88 276.877 189.547C277.45 189.203 278.09 189.031 278.799 189.031ZM279.033 190.281C278.471 190.281 277.992 190.422 277.596 190.703C277.2 190.984 276.893 191.349 276.674 191.797C276.465 192.234 276.361 192.708 276.361 193.219C276.361 193.719 276.465 194.182 276.674 194.609C276.882 195.026 277.174 195.359 277.549 195.609C277.934 195.859 278.377 195.984 278.877 195.984C279.356 195.984 279.783 195.859 280.158 195.609C280.533 195.359 280.83 195.016 281.049 194.578C281.268 194.13 281.372 193.63 281.361 193.078L281.346 191.578C281.023 191.172 280.674 190.854 280.299 190.625C279.934 190.396 279.512 190.281 279.033 190.281ZM288.51 189.031C289.083 189.031 289.578 189.125 289.994 189.312C290.411 189.49 290.698 189.651 290.854 189.797V191.094C290.562 190.875 290.229 190.688 289.854 190.531C289.479 190.365 289.031 190.281 288.51 190.281C287.958 190.281 287.474 190.417 287.057 190.688C286.64 190.948 286.317 191.297 286.088 191.734C285.869 192.161 285.76 192.63 285.76 193.141C285.76 193.641 285.869 194.109 286.088 194.547C286.317 194.974 286.64 195.323 287.057 195.594C287.474 195.854 287.958 195.984 288.51 195.984C289.031 195.984 289.479 195.906 289.854 195.75C290.229 195.583 290.562 195.391 290.854 195.172V196.469C290.698 196.625 290.411 196.792 289.994 196.969C289.578 197.146 289.083 197.234 288.51 197.234C287.718 197.234 287.015 197.047 286.401 196.672C285.786 196.297 285.302 195.802 284.948 195.188C284.604 194.562 284.432 193.88 284.432 193.141C284.432 192.401 284.604 191.719 284.948 191.094C285.302 190.469 285.786 189.969 286.401 189.594C287.015 189.219 287.718 189.031 288.51 189.031ZM295.862 189.031C296.664 189.031 297.331 189.198 297.862 189.531C298.393 189.865 298.789 190.318 299.049 190.891C299.32 191.464 299.456 192.109 299.456 192.828V193.594H293.456C293.518 194.031 293.669 194.432 293.909 194.797C294.148 195.161 294.461 195.453 294.846 195.672C295.232 195.88 295.674 195.984 296.174 195.984C296.737 195.984 297.263 195.844 297.753 195.562C298.242 195.271 298.654 194.953 298.987 194.609L298.971 196C298.825 196.177 298.607 196.365 298.315 196.562C298.034 196.75 297.706 196.906 297.331 197.031C296.966 197.167 296.581 197.234 296.174 197.234C295.383 197.234 294.68 197.047 294.065 196.672C293.45 196.297 292.966 195.802 292.612 195.188C292.268 194.562 292.096 193.88 292.096 193.141C292.096 192.401 292.258 191.719 292.581 191.094C292.904 190.469 293.346 189.969 293.909 189.594C294.482 189.219 295.133 189.031 295.862 189.031ZM295.862 190.281C295.216 190.281 294.685 190.5 294.268 190.938C293.852 191.365 293.591 191.885 293.487 192.5H298.19C298.138 191.99 297.992 191.573 297.753 191.25C297.523 190.927 297.242 190.688 296.909 190.531C296.575 190.365 296.227 190.281 295.862 190.281Z" fill="#181C2E"/>
<g filter="url(#filter3_d_864_1066)">
<path fill-rule="evenodd" clip-rule="evenodd" d="M4.48047 177.36C4.48047 174.784 4.48047 173.496 4.98184 172.512C5.42286 171.646 6.12657 170.942 6.99211 170.501C7.97611 170 9.26423 170 11.8405 170H127.12C129.697 170 130.985 170 131.969 170.501C132.834 170.942 133.538 171.646 133.979 172.512C134.48 173.496 134.48 174.784 134.48 177.36V204.64C134.48 207.216 134.48 208.504 133.979 209.488C133.538 210.354 132.834 211.058 131.969 211.499C130.985 212 129.697 212 127.12 212H11.8405C9.26423 212 7.97611 212 6.99211 211.499C6.12657 211.058 5.42286 210.354 4.98184 209.488C4.48047 208.504 4.48047 207.216 4.48047 204.64V177.36Z" fill="#ADB3BC"/>
</g>
<path d="M64.2692 195.75V197H58.5973V195.75H60.6755V188.938C60.363 189.208 60.0401 189.396 59.7067 189.5C59.3734 189.604 59.0401 189.688 58.7067 189.75V188.406C59.3109 188.25 59.8369 187.995 60.2848 187.641C60.7328 187.286 61.1026 186.917 61.3942 186.531H62.0817V195.75H64.2692ZM69.1836 186.297C69.8711 186.297 70.4753 186.422 70.9961 186.672C71.5169 186.922 71.9232 187.281 72.2148 187.75C72.5065 188.208 72.6523 188.755 72.6523 189.391C72.6523 190.068 72.4805 190.714 72.1367 191.328C71.793 191.932 71.3034 192.578 70.668 193.266C70.043 193.953 69.2982 194.766 68.4336 195.703H72.7305V197H66.168V196.438C67.2305 195.25 68.1471 194.245 68.918 193.422C69.6888 192.589 70.2826 191.875 70.6992 191.281C71.1159 190.688 71.3242 190.161 71.3242 189.703C71.3242 189.026 71.1003 188.521 70.6523 188.188C70.2148 187.844 69.6836 187.672 69.0586 187.672C68.5482 187.672 68.0638 187.802 67.6055 188.062C67.1576 188.312 66.7826 188.573 66.4805 188.844V187.375C66.7513 187.125 67.1211 186.885 67.5898 186.656C68.0586 186.417 68.5898 186.297 69.1836 186.297ZM77.3011 186.297C77.9886 186.297 78.598 186.427 79.1292 186.688C79.6709 186.948 80.0928 187.307 80.3948 187.766C80.7073 188.214 80.8636 188.729 80.8636 189.312C80.8636 189.781 80.7438 190.177 80.5042 190.5C80.2751 190.823 79.999 191.078 79.6761 191.266C79.3532 191.453 79.0563 191.583 78.7855 191.656C79.0563 191.729 79.3532 191.875 79.6761 192.094C79.999 192.302 80.2751 192.578 80.5042 192.922C80.7438 193.266 80.8636 193.672 80.8636 194.141C80.8636 194.724 80.7126 195.25 80.4105 195.719C80.1188 196.188 79.7073 196.557 79.1761 196.828C78.6448 197.099 78.0355 197.234 77.348 197.234C76.7334 197.234 76.1813 197.13 75.6917 196.922C75.2126 196.714 74.8376 196.484 74.5667 196.234V194.688C74.8063 194.854 75.0563 195.036 75.3167 195.234C75.5771 195.432 75.874 195.604 76.2073 195.75C76.5407 195.896 76.9313 195.969 77.3792 195.969C78.0042 195.969 78.5198 195.802 78.9261 195.469C79.3323 195.135 79.5355 194.667 79.5355 194.062C79.5355 193.719 79.4261 193.411 79.2073 193.141C78.999 192.87 78.723 192.656 78.3792 192.5C78.0459 192.344 77.6865 192.266 77.3011 192.266H76.3636V191.016H77.3011C77.9573 191.016 78.4938 190.875 78.9105 190.594C79.3271 190.302 79.5355 189.901 79.5355 189.391C79.5355 189.026 79.4313 188.708 79.223 188.438C79.0146 188.167 78.7386 187.953 78.3948 187.797C78.0511 187.641 77.6709 187.562 77.2542 187.562C76.7126 187.562 76.2542 187.682 75.8792 187.922C75.5146 188.151 75.1813 188.417 74.8792 188.719V187.172C75.1501 186.922 75.499 186.714 75.9261 186.547C76.3636 186.38 76.8219 186.297 77.3011 186.297Z" fill="#181C2E"/>
<g filter="url(#filter4_d_864_1066)">
<path fill-rule="evenodd" clip-rule="evenodd" d="M492.801 123.36C492.801 120.784 492.801 119.496 493.302 118.512C493.743 117.646 494.447 116.942 495.312 116.501C496.296 116 497.585 116 500.161 116H548.441C551.017 116 552.305 116 553.289 116.501C554.155 116.942 554.858 117.646 555.299 118.512C555.801 119.496 555.801 120.784 555.801 123.36V150.64C555.801 153.216 555.801 154.504 555.299 155.488C554.858 156.354 554.155 157.058 553.289 157.499C552.305 158 551.017 158 548.441 158H500.161C497.585 158 496.296 158 495.312 157.499C494.447 157.058 493.743 156.354 493.302 155.488C492.801 154.504 492.801 153.216 492.801 150.64V123.36Z" fill="#ADB3BC"/>
</g>
<path fill-rule="evenodd" clip-rule="evenodd" d="M512.532 132.778C512.51 132.792 512.466 132.82 512.418 132.852C512.383 132.875 512.355 132.894 512.297 132.933L509.097 135.076C509.013 135.134 508.955 135.174 508.819 135.265C508.744 135.315 508.688 135.354 508.569 135.439C508.348 135.582 508.114 135.754 507.895 135.935C507.688 136.081 507.523 136.252 507.408 136.438C507.171 136.922 507.171 137.393 507.382 137.83L507.41 137.88C507.526 138.065 507.691 138.234 507.895 138.379C508.114 138.559 508.348 138.731 508.595 138.893C508.688 138.961 508.744 138.999 508.819 139.05L509.097 139.236L512.015 141.193C512.151 141.284 512.218 141.329 512.296 141.378C512.378 141.437 512.465 141.494 512.553 141.549C512.568 141.559 516.287 144.048 516.287 144.048C516.402 144.124 516.495 144.185 516.703 144.32C516.725 144.334 516.759 144.357 516.769 144.364C516.823 144.402 516.854 144.424 516.875 144.438C517.308 144.729 517.807 144.973 518.352 145.162C518.911 145.348 519.493 145.477 520.093 145.547C520.659 145.609 521.221 145.643 521.783 145.648C521.88 145.649 521.961 145.65 522.14 145.651C522.313 145.652 522.389 145.653 522.483 145.654L533.565 145.654C533.679 145.653 533.756 145.652 533.931 145.651C534.112 145.65 534.194 145.649 534.298 145.648C534.863 145.641 535.428 145.607 535.987 145.545C536.601 145.476 537.19 145.345 537.741 145.158C538.296 144.969 538.802 144.723 539.241 144.427C539.678 144.134 540.044 143.796 540.327 143.427C540.607 143.053 540.798 142.66 540.902 142.254C540.996 141.875 541.045 141.495 541.051 141.113C541.056 141.035 541.059 140.96 541.062 140.794C541.063 140.715 541.064 140.68 541.065 140.638L541.065 133.648C541.064 133.594 541.063 133.559 541.062 133.482L541.06 133.401C541.058 133.3 541.055 133.224 541.051 133.148C541.044 132.789 540.997 132.413 540.908 132.042C540.8 131.63 540.609 131.241 540.337 130.875C540.052 130.502 539.688 130.168 539.253 129.877C538.82 129.584 538.317 129.338 537.765 129.15C537.217 128.967 536.638 128.838 536.041 128.767C535.468 128.706 534.906 128.674 534.342 128.67C534.156 128.664 533.991 128.663 533.626 128.663C533.506 128.662 533.367 128.661 533.209 128.661C533.091 128.66 532.997 128.66 532.785 128.66H523.343C522.92 128.66 522.728 128.661 522.486 128.663C522.137 128.663 521.972 128.664 521.759 128.67C521.224 128.674 520.662 128.706 520.107 128.766C519.493 128.838 518.911 128.966 518.366 129.148C517.807 129.342 517.308 129.586 516.874 129.877C516.854 129.891 516.823 129.912 516.771 129.949C516.759 129.958 516.703 129.995 516.703 129.995C516.495 130.13 516.402 130.19 516.287 130.267L515.808 130.588L512.62 132.726C512.592 132.741 512.562 132.759 512.532 132.778ZM532.785 129.919C532.994 129.919 533.087 129.919 533.201 129.919C533.351 129.92 533.484 129.921 533.61 129.922C533.966 129.922 534.114 129.923 534.293 129.928C534.792 129.932 535.263 129.959 535.73 130.009C536.132 130.057 536.538 130.147 536.918 130.274C537.286 130.4 537.626 130.566 537.922 130.765C538.22 130.965 538.468 131.193 538.659 131.443C538.845 131.693 538.98 131.967 539.054 132.25C539.126 132.551 539.166 132.866 539.172 133.181C539.176 133.262 539.178 133.328 539.18 133.42L539.182 133.498C539.184 133.579 539.184 133.615 539.186 133.661L539.186 140.625C539.184 140.659 539.184 140.696 539.182 140.778C539.179 140.933 539.177 141 539.172 141.082C539.167 141.417 539.125 141.733 539.048 142.046C538.976 142.326 538.842 142.601 538.65 142.859C538.461 143.106 538.209 143.337 537.909 143.539C537.61 143.74 537.266 143.908 536.89 144.036C536.508 144.166 536.1 144.256 535.678 144.304C535.213 144.355 534.738 144.384 534.263 144.389C534.165 144.391 534.088 144.391 533.913 144.392C533.732 144.394 533.65 144.394 533.546 144.396L522.502 144.396C522.419 144.394 522.338 144.394 522.159 144.392C521.986 144.391 521.91 144.391 521.816 144.389C521.34 144.385 520.871 144.357 520.407 144.306C519.996 144.258 519.587 144.168 519.203 144.04C518.843 143.915 518.502 143.747 518.204 143.548L518.131 143.496C518.058 143.445 518.026 143.423 517.99 143.402C517.803 143.281 517.717 143.225 517.616 143.157L513.89 140.662C513.855 140.641 513.835 140.628 513.821 140.62C513.753 140.577 513.698 140.539 513.646 140.502C513.539 140.433 513.48 140.394 513.344 140.303L510.426 138.346L510.149 138.16C510.091 138.121 510.045 138.089 509.938 138.013C509.707 137.86 509.512 137.717 509.331 137.567L509.274 137.524C509.227 137.491 509.187 137.454 509.157 137.413C509.085 137.245 509.085 137.067 509.158 136.899C509.186 136.86 509.224 136.825 509.27 136.794L509.334 136.745C509.512 136.596 509.705 136.455 509.909 136.321C510.045 136.226 510.091 136.193 510.149 136.155C510.295 136.056 510.361 136.012 510.443 135.954L513.344 134.012L513.626 133.823C513.682 133.785 513.707 133.769 513.737 133.749L513.799 133.712C513.844 133.684 513.869 133.669 513.894 133.653L517.137 131.478L517.616 131.157C517.717 131.089 517.803 131.034 517.99 130.913C518.026 130.891 518.058 130.869 518.128 130.82L518.204 130.767C518.502 130.567 518.843 130.4 519.217 130.27C519.587 130.147 519.996 130.057 520.418 130.007C520.869 129.959 521.338 129.932 521.808 129.928C522.014 129.923 522.162 129.922 522.502 129.922C522.745 129.92 522.93 129.919 523.343 129.919H532.785ZM523.882 140.489C523.805 140.539 523.715 140.579 523.612 140.608C523.296 140.695 522.932 140.646 522.69 140.484C522.361 140.263 522.361 139.905 522.69 139.684C522.738 139.652 522.791 139.624 522.847 139.601L526.497 137.155L522.69 134.608L522.701 134.6C522.627 134.549 522.566 134.489 522.524 134.42C522.393 134.208 522.466 133.964 522.709 133.802C523.039 133.582 523.572 133.582 523.902 133.802C523.95 133.835 523.992 133.87 524.026 133.907L527.688 136.356L531.385 133.878C531.412 133.851 531.443 133.826 531.478 133.802C531.719 133.641 532.082 133.592 532.397 133.679C532.712 133.766 532.918 133.972 532.918 134.201C532.918 134.353 532.827 134.495 532.672 134.599L532.681 134.605L528.881 137.153L532.59 139.633C532.623 139.649 532.656 139.667 532.686 139.687C532.928 139.849 533.001 140.092 532.87 140.303C532.74 140.514 532.433 140.652 532.092 140.652C531.864 140.652 531.652 140.59 531.497 140.487L531.488 140.493L527.689 137.952L523.893 140.496L523.882 140.489Z" fill="#181C2E"/>
<g filter="url(#filter5_d_864_1066)">
<rect x="4.48047" y="116" width="63" height="42" rx="4.6" fill="#FCFCFE"/>
</g>
<path d="M48.9817 138.664H42.7141V142.634C42.7141 142.714 42.7141 142.787 42.7141 142.864C42.7141 142.93 42.7141 142.994 42.7101 143.06C42.7074 143.203 42.6889 143.346 42.6549 143.487C42.6179 143.627 42.5508 143.763 42.4558 143.89C42.3586 144.017 42.2316 144.133 42.0796 144.233C41.9269 144.333 41.7526 144.418 41.5625 144.483C41.37 144.546 41.1655 144.591 40.9549 144.616C40.7436 144.639 40.5302 144.651 40.3163 144.653C40.2168 144.653 40.1203 144.656 40.0227 144.656H31.9601C31.8605 144.656 31.7645 144.653 31.6664 144.653C31.4526 144.651 31.2392 144.639 31.0279 144.616C30.8174 144.591 30.6131 144.546 30.4208 144.483C30.2307 144.418 30.0564 144.333 29.9037 144.233C29.7516 144.133 29.6246 144.017 29.5275 143.89C29.4325 143.763 29.3654 143.627 29.3284 143.487C29.2942 143.346 29.2755 143.203 29.2727 143.06C29.2727 142.994 29.2687 142.93 29.2687 142.864C29.2687 142.787 29.2687 142.714 29.2687 142.634V138.664H22.9021C22.2581 138.664 21.432 137.735 22.2053 137.218C22.8627 136.782 33.1953 129.883 35.3576 128.447C35.5165 128.316 35.741 128.228 35.9892 128.2H36.0061C36.2208 128.208 36.4202 128.277 36.5535 128.39C38.7159 129.826 49.0837 136.782 49.7416 137.218C50.5155 137.735 49.8675 138.664 48.9817 138.664Z" fill="#181C2E"/>
<g filter="url(#filter6_d_864_1066)">
<rect x="425.6" y="116" width="48" height="42" rx="4.6" fill="#FCFCFE"/>
</g>
<path d="M457.084 130.278V145H455.106V134.343L450.558 139.199H450.031L445.372 134.343V145H443.395V130.278H444.01L450.294 137.024L456.469 130.278H457.084Z" fill="#181C2E"/>
<g filter="url(#filter7_d_864_1066)">
<rect x="368.854" y="116" width="48" height="42" rx="4.6" fill="#FCFCFE"/>
</g>
<path d="M398.888 130.278V145H398.141L388.583 134.475V145H386.605V130.278H387.352L396.91 140.935V130.278H398.888Z" fill="#181C2E"/>
<g filter="url(#filter8_d_864_1066)">
<rect x="312.107" y="116" width="48" height="42" rx="4.6" fill="#FCFCFE"/>
</g>
<path d="M336.078 129.927C337.162 129.927 338.1 130.11 338.891 130.476C339.696 130.828 340.319 131.311 340.758 131.926C341.198 132.542 341.418 133.252 341.418 134.058C341.418 134.775 341.213 135.435 340.802 136.035C340.392 136.621 339.88 137.061 339.264 137.354C339.704 137.441 340.136 137.625 340.561 137.903C340.985 138.181 341.337 138.562 341.615 139.045C341.908 139.529 342.055 140.129 342.055 140.847C342.055 141.667 341.82 142.407 341.352 143.066C340.883 143.726 340.209 144.253 339.33 144.648C338.466 145.029 337.441 145.22 336.254 145.22C335.346 145.22 334.394 145.161 333.398 145.044C332.416 144.941 331.581 144.817 330.893 144.67V130.476C331.654 130.3 332.482 130.168 333.376 130.081C334.284 129.978 335.185 129.927 336.078 129.927ZM335.946 131.794C335.331 131.794 334.775 131.816 334.277 131.86C333.793 131.904 333.324 131.97 332.87 132.058V136.672H336.32C337.316 136.672 338.078 136.423 338.605 135.925C339.132 135.413 339.396 134.819 339.396 134.146C339.396 133.618 339.235 133.186 338.913 132.849C338.59 132.498 338.166 132.234 337.638 132.058C337.126 131.882 336.562 131.794 335.946 131.794ZM332.87 143.088C333.398 143.191 333.984 143.264 334.628 143.308C335.273 143.337 335.8 143.352 336.21 143.352C337.309 143.352 338.217 143.125 338.935 142.671C339.667 142.217 340.033 141.609 340.033 140.847C340.033 140.042 339.674 139.441 338.957 139.045C338.254 138.635 337.389 138.43 336.364 138.43H332.87V143.088Z" fill="#181C2E"/>
<g filter="url(#filter9_d_864_1066)">
<rect x="256.854" y="116" width="48" height="42" rx="4.6" fill="#FCFCFE"/>
</g>
<path d="M288.119 130.278L281.242 145H280.253L273.376 130.278H275.749L280.714 141.66L285.746 130.278H288.119Z" fill="#181C2E"/>
<g filter="url(#filter10_d_864_1066)">
<rect x="200.107" y="116" width="48" height="42" rx="4.6" fill="#FCFCFE"/>
</g>
<path d="M226.197 129.949C227.266 129.949 228.138 130.095 228.812 130.388C229.5 130.681 230.101 131.062 230.614 131.531V133.706C230.291 133.472 229.925 133.215 229.515 132.937C229.119 132.659 228.651 132.417 228.109 132.212C227.581 131.992 226.944 131.882 226.197 131.882C225.098 131.882 224.117 132.131 223.253 132.629C222.388 133.127 221.707 133.816 221.209 134.695C220.711 135.559 220.462 136.541 220.462 137.639C220.462 138.738 220.711 139.719 221.209 140.583C221.707 141.448 222.388 142.136 223.253 142.649C224.117 143.147 225.098 143.396 226.197 143.396C227.325 143.396 228.284 143.213 229.075 142.847C229.881 142.466 230.54 142.078 231.053 141.682V143.66C230.54 144.114 229.867 144.509 229.032 144.846C228.211 145.168 227.266 145.33 226.197 145.33C225.084 145.33 224.058 145.132 223.121 144.736C222.183 144.326 221.363 143.77 220.66 143.066C219.957 142.363 219.408 141.55 219.012 140.627C218.631 139.69 218.441 138.694 218.441 137.639C218.441 136.584 218.631 135.596 219.012 134.673C219.408 133.735 219.957 132.915 220.66 132.212C221.363 131.509 222.183 130.959 223.121 130.564C224.058 130.154 225.084 129.949 226.197 129.949Z" fill="#181C2E"/>
<g filter="url(#filter11_d_864_1066)">
<rect x="144.854" y="116" width="48" height="42" rx="4.6" fill="#FCFCFE"/>
</g>
<path d="M176.348 130.278L170.57 137.859L176.348 145H173.712L169.273 139.243L165.054 145H162.638L168.153 137.639L162.638 130.278H165.274L169.449 136.277L173.712 130.278H176.348Z" fill="#181C2E"/>
<g filter="url(#filter12_d_864_1066)">
<rect x="88.1074" y="116" width="48" height="42" rx="4.6" fill="#FCFCFE"/>
</g>
<path d="M118.658 130.278V131.069L109.781 143.132H118.658V145H106.836V144.209L115.471 132.146H107.342V130.278H118.658Z" fill="#181C2E"/>
<g filter="url(#filter13_d_864_1066)">
<rect x="480.854" y="62" width="48" height="42" rx="4.6" fill="#FCFCFE"/>
</g>
<path d="M502.154 76.2783V89.1323H510.261V91H500.176V76.2783H502.154Z" fill="#181C2E"/>
<g filter="url(#filter14_d_864_1066)">
<rect x="424.107" y="62" width="48" height="42" rx="4.6" fill="#FCFCFE"/>
</g>
<path d="M445.759 76.2783V84.0127L452.482 76.2783H455.251L449.076 83.0679L455.91 91H453.163L447.648 84.6499L445.759 86.7153V91H443.781V76.2783H445.759Z" fill="#181C2E"/>
<g filter="url(#filter15_d_864_1066)">
<rect x="368.854" y="62" width="48" height="42" rx="4.6" fill="#FCFCFE"/>
</g>
<path d="M394.538 76.2344V90.2529C394.538 91.498 394.333 92.5308 393.923 93.3511C393.513 94.1714 392.949 94.8306 392.231 95.3286C391.528 95.8413 390.715 96.2661 389.792 96.603L388.825 94.6914C391.315 93.7979 392.56 92.4502 392.56 90.6484V76.2344H394.538Z" fill="#181C2E"/>
<g filter="url(#filter16_d_864_1066)">
<rect x="312.107" y="62" width="48" height="42" rx="4.6" fill="#FCFCFE"/>
</g>
<path d="M331.804 76.2783V82.4746H340.197V76.2783H342.175V91H340.197V84.3423H331.804V91H329.826V76.2783H331.804Z" fill="#181C2E"/>
<g filter="url(#filter17_d_864_1066)">
<rect x="256.854" y="62" width="48" height="42" rx="4.6" fill="#FCFCFE"/>
</g>
<path d="M281.088 82.958H287.57V89.0005C287.218 89.3813 286.764 89.7549 286.208 90.1211C285.651 90.4727 285.006 90.7656 284.274 91C283.556 91.2197 282.765 91.3296 281.901 91.3296C280.788 91.3296 279.762 91.1318 278.825 90.7363C277.887 90.3262 277.067 89.7695 276.364 89.0664C275.661 88.3633 275.111 87.5503 274.716 86.6274C274.335 85.6899 274.145 84.6938 274.145 83.6392C274.145 82.5845 274.335 81.5957 274.716 80.6729C275.111 79.7354 275.661 78.915 276.364 78.2119C277.067 77.5088 277.887 76.9595 278.825 76.564C279.762 76.1538 280.788 75.9487 281.901 75.9487C282.97 75.9487 283.842 76.0952 284.516 76.3882C285.204 76.6812 285.805 77.062 286.318 77.5308V79.7061C285.995 79.4717 285.629 79.2153 285.219 78.937C284.823 78.6587 284.355 78.417 283.813 78.2119C283.285 77.9922 282.648 77.8823 281.901 77.8823C280.802 77.8823 279.821 78.1313 278.957 78.6294C278.092 79.1274 277.411 79.8159 276.913 80.6948C276.415 81.5591 276.166 82.5405 276.166 83.6392C276.166 84.7378 276.415 85.7192 276.913 86.5835C277.411 87.4478 278.092 88.1362 278.957 88.6489C279.821 89.147 280.802 89.396 281.901 89.396C282.648 89.396 283.249 89.3228 283.703 89.1763C284.157 89.0151 284.516 88.8394 284.779 88.6489C285.043 88.4438 285.256 88.2754 285.417 88.1436L285.439 84.7158H281.088V82.958Z" fill="#181C2E"/>
<g filter="url(#filter18_d_864_1066)">
<rect x="200.107" y="62" width="48" height="42" rx="4.6" fill="#FCFCFE"/>
</g>
<path d="M227.747 83.0679V84.9355H221.418V91H219.441V76.2783H229.065V78.146H221.418V83.0679H227.747Z" fill="#181C2E"/>
<g filter="url(#filter19_d_864_1066)">
<rect x="144.854" y="62" width="48" height="42" rx="4.6" fill="#FCFCFE"/>
</g>
<path d="M168.978 75.9268C170.633 75.9268 172.032 76.2637 173.175 76.9375C174.332 77.6113 175.211 78.5269 175.811 79.6841C176.426 80.8267 176.734 82.123 176.734 83.5732C176.734 85.0234 176.426 86.3271 175.811 87.4844C175.211 88.627 174.332 89.5352 173.175 90.209C172.032 90.8828 170.633 91.2197 168.978 91.2197C167.967 91.2197 167.037 91.1685 166.187 91.0659C165.338 90.9634 164.466 90.8315 163.572 90.6704V76.4761C164.466 76.3149 165.338 76.1831 166.187 76.0806C167.037 75.978 167.967 75.9268 168.978 75.9268ZM168.978 77.7944C168.45 77.7944 167.886 77.8164 167.286 77.8604C166.685 77.8896 166.107 77.9409 165.55 78.0142V89.1323C166.107 89.1909 166.685 89.2422 167.286 89.2861C167.886 89.3301 168.45 89.3521 168.978 89.3521C170.164 89.3521 171.182 89.103 172.032 88.605C172.896 88.0923 173.555 87.4038 174.009 86.5396C174.478 85.6606 174.713 84.6719 174.713 83.5732C174.713 82.4746 174.478 81.4932 174.009 80.6289C173.555 79.75 172.896 79.0615 172.032 78.5635C171.182 78.0508 170.164 77.7944 168.978 77.7944Z" fill="#181C2E"/>
<g filter="url(#filter20_d_864_1066)">
<rect x="88.1074" y="62" width="48" height="42" rx="4.6" fill="#FCFCFE"/>
</g>
<path d="M112.232 76.0586C113.096 76.0586 113.806 76.1831 114.363 76.4321C114.934 76.6812 115.432 76.9448 115.857 77.2231V79.2666C115.447 78.959 114.949 78.6733 114.363 78.4097C113.777 78.1313 113.14 77.9922 112.451 77.9922C112.012 77.9922 111.551 78.0728 111.067 78.2339C110.598 78.3804 110.203 78.6221 109.881 78.959C109.558 79.2959 109.397 79.728 109.397 80.2554C109.397 80.8413 109.61 81.2881 110.034 81.5957C110.459 81.9033 110.972 82.1963 111.573 82.4746L113.594 83.3975C114.605 83.8516 115.366 84.3569 115.879 84.9136C116.392 85.4702 116.648 86.21 116.648 87.1328C116.648 87.9385 116.414 88.6489 115.945 89.2642C115.476 89.8647 114.861 90.3408 114.099 90.6924C113.338 91.0439 112.503 91.2197 111.595 91.2197C110.745 91.2197 109.961 91.0732 109.243 90.7803C108.526 90.4873 107.903 90.1577 107.376 89.7915V87.748C107.947 88.1436 108.599 88.5024 109.331 88.8247C110.078 89.1323 110.921 89.2861 111.858 89.2861C112.591 89.2861 113.235 89.103 113.792 88.7368C114.348 88.3706 114.627 87.8652 114.627 87.2207C114.627 86.8545 114.51 86.5396 114.275 86.2759C114.055 86.0122 113.784 85.7852 113.462 85.5947C113.14 85.4043 112.825 85.2432 112.517 85.1113L110.078 84.0127C109.024 83.5439 108.306 82.9946 107.925 82.3647C107.544 81.7349 107.354 81.0098 107.354 80.1895C107.354 79.4131 107.574 78.7173 108.013 78.1021C108.467 77.4722 109.068 76.9741 109.815 76.6079C110.562 76.2417 111.367 76.0586 112.232 76.0586Z" fill="#181C2E"/>
<g filter="url(#filter21_d_864_1066)">
<rect x="32.8535" y="62" width="48" height="42" rx="4.6" fill="#FCFCFE"/>
</g>
<path d="M57.2418 76.2783L64.1193 91H61.7462L60.2081 87.4844H53.3087L51.7487 91H49.3756L56.2531 76.2783H57.2418ZM56.7804 79.6182L54.1217 85.6167H59.3952L56.7804 79.6182Z" fill="#181C2E"/>
<g filter="url(#filter22_d_864_1066)">
<rect x="507.734" y="8" width="48" height="42" rx="4.6" fill="#FCFCFE"/>
</g>
<path d="M533.407 22.2783C534.256 22.2783 535.069 22.4761 535.846 22.8716C536.622 23.2524 537.259 23.8091 537.757 24.5415C538.27 25.2593 538.526 26.1235 538.526 27.1343C538.526 27.9985 538.284 28.7969 537.801 29.5293C537.318 30.2617 536.658 30.855 535.824 31.3091C535.003 31.7485 534.088 31.9683 533.077 31.9683C532.33 31.9683 531.641 31.895 531.012 31.7485C530.396 31.5874 529.898 31.4189 529.517 31.2432V37H527.54V22.2783H533.407ZM529.517 24.146V29.4414C529.913 29.6025 530.426 29.7563 531.055 29.9028C531.7 30.0347 532.352 30.1006 533.011 30.1006C534.124 30.1006 534.981 29.8149 535.582 29.2437C536.197 28.6577 536.505 27.9546 536.505 27.1343C536.505 26.5044 536.329 25.9697 535.977 25.5303C535.64 25.0908 535.194 24.7539 534.637 24.5195C534.08 24.2705 533.487 24.146 532.857 24.146H529.517Z" fill="#181C2E"/>
<g filter="url(#filter23_d_864_1066)">
<rect x="452.48" y="8" width="48" height="42" rx="4.6" fill="#FCFCFE"/>
</g>
<path d="M476.374 21.9487C477.487 21.9487 478.512 22.1538 479.45 22.564C480.387 22.9595 481.208 23.5088 481.911 24.2119C482.614 24.915 483.156 25.7354 483.537 26.6729C483.932 27.5957 484.13 28.5845 484.13 29.6392C484.13 30.6938 483.932 31.6899 483.537 32.6274C483.156 33.5503 482.614 34.3633 481.911 35.0664C481.208 35.7695 480.387 36.3262 479.45 36.7363C478.512 37.1318 477.487 37.3296 476.374 37.3296C475.26 37.3296 474.235 37.1318 473.297 36.7363C472.36 36.3262 471.54 35.7695 470.836 35.0664C470.133 34.3633 469.584 33.5503 469.189 32.6274C468.808 31.6899 468.617 30.6938 468.617 29.6392C468.617 28.5845 468.808 27.5957 469.189 26.6729C469.584 25.7354 470.133 24.915 470.836 24.2119C471.54 23.5088 472.36 22.9595 473.297 22.564C474.235 22.1538 475.26 21.9487 476.374 21.9487ZM476.374 23.8823C475.275 23.8823 474.294 24.1313 473.429 24.6294C472.565 25.1274 471.884 25.8159 471.386 26.6948C470.888 27.5591 470.639 28.5405 470.639 29.6392C470.639 30.7378 470.888 31.7192 471.386 32.5835C471.884 33.4478 472.565 34.1362 473.429 34.6489C474.294 35.147 475.275 35.396 476.374 35.396C477.472 35.396 478.454 35.147 479.318 34.6489C480.182 34.1362 480.863 33.4478 481.361 32.5835C481.859 31.7192 482.108 30.7378 482.108 29.6392C482.108 28.5405 481.859 27.5591 481.361 26.6948C480.863 25.8159 480.182 25.1274 479.318 24.6294C478.454 24.1313 477.472 23.8823 476.374 23.8823Z" fill="#181C2E"/>
<g filter="url(#filter24_d_864_1066)">
<rect x="395.734" y="8" width="48" height="42" rx="4.6" fill="#FCFCFE"/>
</g>
<path d="M423.1 35.1323V37H416.156V35.1323H418.639V24.146H416.156V22.2783H423.1V24.146H420.617V35.1323H423.1Z" fill="#181C2E"/>
<g filter="url(#filter25_d_864_1066)">
<rect x="340.48" y="8" width="48" height="42" rx="4.6" fill="#FCFCFE"/>
</g>
<path d="M371.186 22.2344V31.1772C371.186 32.4517 370.915 33.5503 370.373 34.4731C369.845 35.3813 369.127 36.0771 368.219 36.5605C367.311 37.0439 366.278 37.2856 365.121 37.2856C363.978 37.2856 362.946 37.0439 362.023 36.5605C361.115 36.0771 360.39 35.3813 359.848 34.4731C359.32 33.5503 359.057 32.4517 359.057 31.1772V22.2344H361.034V31.1113C361.034 32.1074 361.217 32.9131 361.583 33.5283C361.964 34.1436 362.462 34.5903 363.078 34.8687C363.707 35.1323 364.389 35.2642 365.121 35.2642C365.853 35.2495 366.527 35.1104 367.143 34.8467C367.772 34.5684 368.27 34.1289 368.637 33.5283C369.018 32.9131 369.208 32.1074 369.208 31.1113V22.2344H371.186Z" fill="#181C2E"/>
<g filter="url(#filter26_d_864_1066)">
<rect x="283.734" y="8" width="48" height="42" rx="4.6" fill="#FCFCFE"/>
</g>
<path d="M314.34 22.2783L308.693 30.9575V37H306.561V31.2432L300.915 22.2783H303.288L307.594 29.2217L311.967 22.2783H314.34Z" fill="#181C2E"/>
<g filter="url(#filter27_d_864_1066)">
<rect x="228.48" y="8" width="48" height="42" rx="4.6" fill="#FCFCFE"/>
</g>
<path d="M258.449 22.2783V24.146H253.373V36.9341H251.395V24.146H246.32V22.2783H258.449Z" fill="#181C2E"/>
<g filter="url(#filter28_d_864_1066)">
<rect x="171.734" y="8" width="48" height="42" rx="4.6" fill="#FCFCFE"/>
</g>
<path d="M196.704 22.2783C197.553 22.2783 198.366 22.4395 199.143 22.7617C199.919 23.0693 200.556 23.5527 201.054 24.2119C201.567 24.8564 201.823 25.6841 201.823 26.6948C201.823 27.603 201.56 28.3721 201.032 29.002C200.52 29.6318 199.861 30.1079 199.055 30.4302C198.264 30.7378 197.444 30.8916 196.594 30.8916C196.33 30.8916 195.979 30.877 195.539 30.8477L202.395 37H199.363L193.034 30.8477V37H191.057V22.2783H196.704ZM193.034 24.146V28.8701C193.518 29.002 194.045 29.1045 194.616 29.1777C195.188 29.251 195.752 29.2876 196.308 29.2876C197.422 29.2876 198.279 29.0532 198.879 28.5845C199.494 28.1157 199.802 27.4858 199.802 26.6948C199.802 25.8745 199.465 25.2446 198.791 24.8052C198.132 24.3657 197.326 24.146 196.374 24.146H193.034Z" fill="#181C2E"/>
<g filter="url(#filter29_d_864_1066)">
<rect x="116.48" y="8" width="48" height="42" rx="4.6" fill="#FCFCFE"/>
</g>
<path d="M145.547 28.5186V30.3862H138.384V35.1323H146.492V37H136.407V22.2783H146.492V24.146H138.384V28.5186H145.547Z" fill="#181C2E"/>
<g filter="url(#filter30_d_864_1066)">
<rect x="59.7344" y="8" width="48" height="42" rx="4.6" fill="#FCFCFE"/>
</g>
<path d="M94.5267 22.2783L89.3631 37H88.2425L84.2874 25.8599L80.2884 37H79.1678L74.2239 22.2783H76.3773L79.827 33.2207L83.7161 22.2783L84.9905 22.3003L88.7698 33.2207L92.3734 22.2783H94.5267Z" fill="#181C2E"/>
<g filter="url(#filter31_d_864_1066)">
<rect x="4.48047" y="8" width="48" height="42" rx="4.6" fill="#FCFCFE"/>
</g>
<path d="M28.8456 21.9487C29.9589 21.9487 30.9843 22.1538 31.9218 22.564C32.8593 22.9595 33.6796 23.5088 34.3827 24.2119C35.0858 24.915 35.6278 25.7354 36.0087 26.6729C36.4042 27.5957 36.602 28.5845 36.602 29.6392C36.602 30.7964 36.3676 31.8804 35.8988 32.8911C35.4447 33.8872 34.8002 34.7441 33.9652 35.4619C33.1449 36.1797 32.1928 36.6997 31.1088 37.022C32.1195 37.4028 33.1376 37.7251 34.163 37.9888C35.1884 38.2671 36.06 38.4062 36.7777 38.4062V40.3838C35.9721 40.3838 35.0932 40.2446 34.141 39.9663C33.2035 39.7026 32.2733 39.3364 31.3505 38.8677C30.4423 38.3989 29.6073 37.8862 28.8456 37.3296C27.7323 37.3296 26.7069 37.1318 25.7694 36.7363C24.8319 36.3262 24.0116 35.7695 23.3085 35.0664C22.6054 34.3633 22.0561 33.5503 21.6605 32.6274C21.2797 31.6899 21.0893 30.6938 21.0893 29.6392C21.0893 28.5845 21.2797 27.5957 21.6605 26.6729C22.0561 25.7354 22.6054 24.915 23.3085 24.2119C24.0116 23.5088 24.8319 22.9595 25.7694 22.564C26.7069 22.1538 27.7323 21.9487 28.8456 21.9487ZM28.8456 23.8823C27.747 23.8823 26.7655 24.1313 25.9013 24.6294C25.037 25.1274 24.3559 25.8159 23.8578 26.6948C23.3598 27.5591 23.1107 28.5405 23.1107 29.6392C23.1107 30.7378 23.3598 31.7192 23.8578 32.5835C24.3559 33.4478 25.037 34.1362 25.9013 34.6489C26.7655 35.147 27.747 35.396 28.8456 35.396C29.9442 35.396 30.9257 35.147 31.7899 34.6489C32.6542 34.1362 33.3353 33.4478 33.8334 32.5835C34.3314 31.7192 34.5805 30.7378 34.5805 29.6392C34.5805 28.5405 34.3314 27.5591 33.8334 26.6948C33.3353 25.8159 32.6542 25.1274 31.7899 24.6294C30.9257 24.1313 29.9442 23.8823 28.8456 23.8823Z" fill="#181C2E"/>
<defs>
<filter id="filter0_b_864_1066" x="-108.731" y="-108.731" width="777.463" height="508.463" filterUnits="userSpaceOnUse" color-interpolation-filters="sRGB">
<feFlood flood-opacity="0" result="BackgroundImageFix"/>
<feGaussianBlur in="BackgroundImageFix" stdDeviation="54.3656"/>
<feComposite in2="SourceAlpha" operator="in" result="effect1_backgroundBlur_864_1066"/>
<feBlend mode="normal" in="SourceGraphic" in2="effect1_backgroundBlur_864_1066" result="shape"/>
</filter>
<filter id="filter1_d_864_1066" x="424.107" y="170" width="131" height="43" filterUnits="userSpaceOnUse" color-interpolation-filters="sRGB">
<feFlood flood-opacity="0" result="BackgroundImageFix"/>
<feColorMatrix in="SourceAlpha" type="matrix" values="0 0 0 0 0 0 0 0 0 0 0 0 0 0 0 0 0 0 127 0" result="hardAlpha"/>
<feOffset dy="1"/>
<feColorMatrix type="matrix" values="0 0 0 0 0.537255 0 0 0 0 0.541176 0 0 0 0 0.552941 0 0 0 1 0"/>
<feBlend mode="normal" in2="BackgroundImageFix" result="effect1_dropShadow_864_1066"/>
<feBlend mode="normal" in="SourceGraphic" in2="effect1_dropShadow_864_1066" result="shape"/>
</filter>
<filter id="filter2_d_864_1066" x="143.361" y="170" width="272" height="43" filterUnits="userSpaceOnUse" color-interpolation-filters="sRGB">
<feFlood flood-opacity="0" result="BackgroundImageFix"/>
<feColorMatrix in="SourceAlpha" type="matrix" values="0 0 0 0 0 0 0 0 0 0 0 0 0 0 0 0 0 0 127 0" result="hardAlpha"/>
<feOffset dy="1"/>
<feColorMatrix type="matrix" values="0 0 0 0 0.537255 0 0 0 0 0.541176 0 0 0 0 0.552941 0 0 0 1 0"/>
<feBlend mode="normal" in2="BackgroundImageFix" result="effect1_dropShadow_864_1066"/>
<feBlend mode="normal" in="SourceGraphic" in2="effect1_dropShadow_864_1066" result="shape"/>
</filter>
<filter id="filter3_d_864_1066" x="4.48047" y="170" width="130" height="43" filterUnits="userSpaceOnUse" color-interpolation-filters="sRGB">
<feFlood flood-opacity="0" result="BackgroundImageFix"/>
<feColorMatrix in="SourceAlpha" type="matrix" values="0 0 0 0 0 0 0 0 0 0 0 0 0 0 0 0 0 0 127 0" result="hardAlpha"/>
<feOffset dy="1"/>
<feColorMatrix type="matrix" values="0 0 0 0 0.537255 0 0 0 0 0.541176 0 0 0 0 0.552941 0 0 0 1 0"/>
<feBlend mode="normal" in2="BackgroundImageFix" result="effect1_dropShadow_864_1066"/>
<feBlend mode="normal" in="SourceGraphic" in2="effect1_dropShadow_864_1066" result="shape"/>
</filter>
<filter id="filter4_d_864_1066" x="492.801" y="116" width="63" height="43" filterUnits="userSpaceOnUse" color-interpolation-filters="sRGB">
<feFlood flood-opacity="0" result="BackgroundImageFix"/>
<feColorMatrix in="SourceAlpha" type="matrix" values="0 0 0 0 0 0 0 0 0 0 0 0 0 0 0 0 0 0 127 0" result="hardAlpha"/>
<feOffset dy="1"/>
<feColorMatrix type="matrix" values="0 0 0 0 0.537255 0 0 0 0 0.541176 0 0 0 0 0.552941 0 0 0 1 0"/>
<feBlend mode="normal" in2="BackgroundImageFix" result="effect1_dropShadow_864_1066"/>
<feBlend mode="normal" in="SourceGraphic" in2="effect1_dropShadow_864_1066" result="shape"/>
</filter>
<filter id="filter5_d_864_1066" x="4.48047" y="116" width="63" height="43" filterUnits="userSpaceOnUse" color-interpolation-filters="sRGB">
<feFlood flood-opacity="0" result="BackgroundImageFix"/>
<feColorMatrix in="SourceAlpha" type="matrix" values="0 0 0 0 0 0 0 0 0 0 0 0 0 0 0 0 0 0 127 0" result="hardAlpha"/>
<feOffset dy="1"/>
<feColorMatrix type="matrix" values="0 0 0 0 0.537255 0 0 0 0 0.541176 0 0 0 0 0.552941 0 0 0 1 0"/>
<feBlend mode="normal" in2="BackgroundImageFix" result="effect1_dropShadow_864_1066"/>
<feBlend mode="normal" in="SourceGraphic" in2="effect1_dropShadow_864_1066" result="shape"/>
</filter>
<filter id="filter6_d_864_1066" x="425.6" y="116" width="48" height="43" filterUnits="userSpaceOnUse" color-interpolation-filters="sRGB">
<feFlood flood-opacity="0" result="BackgroundImageFix"/>
<feColorMatrix in="SourceAlpha" type="matrix" values="0 0 0 0 0 0 0 0 0 0 0 0 0 0 0 0 0 0 127 0" result="hardAlpha"/>
<feOffset dy="1"/>
<feColorMatrix type="matrix" values="0 0 0 0 0.537255 0 0 0 0 0.541176 0 0 0 0 0.552941 0 0 0 1 0"/>
<feBlend mode="normal" in2="BackgroundImageFix" result="effect1_dropShadow_864_1066"/>
<feBlend mode="normal" in="SourceGraphic" in2="effect1_dropShadow_864_1066" result="shape"/>
</filter>
<filter id="filter7_d_864_1066" x="368.854" y="116" width="48" height="43" filterUnits="userSpaceOnUse" color-interpolation-filters="sRGB">
<feFlood flood-opacity="0" result="BackgroundImageFix"/>
<feColorMatrix in="SourceAlpha" type="matrix" values="0 0 0 0 0 0 0 0 0 0 0 0 0 0 0 0 0 0 127 0" result="hardAlpha"/>
<feOffset dy="1"/>
<feColorMatrix type="matrix" values="0 0 0 0 0.537255 0 0 0 0 0.541176 0 0 0 0 0.552941 0 0 0 1 0"/>
<feBlend mode="normal" in2="BackgroundImageFix" result="effect1_dropShadow_864_1066"/>
<feBlend mode="normal" in="SourceGraphic" in2="effect1_dropShadow_864_1066" result="shape"/>
</filter>
<filter id="filter8_d_864_1066" x="312.107" y="116" width="48" height="43" filterUnits="userSpaceOnUse" color-interpolation-filters="sRGB">
<feFlood flood-opacity="0" result="BackgroundImageFix"/>
<feColorMatrix in="SourceAlpha" type="matrix" values="0 0 0 0 0 0 0 0 0 0 0 0 0 0 0 0 0 0 127 0" result="hardAlpha"/>
<feOffset dy="1"/>
<feColorMatrix type="matrix" values="0 0 0 0 0.537255 0 0 0 0 0.541176 0 0 0 0 0.552941 0 0 0 1 0"/>
<feBlend mode="normal" in2="BackgroundImageFix" result="effect1_dropShadow_864_1066"/>
<feBlend mode="normal" in="SourceGraphic" in2="effect1_dropShadow_864_1066" result="shape"/>
</filter>
<filter id="filter9_d_864_1066" x="256.854" y="116" width="48" height="43" filterUnits="userSpaceOnUse" color-interpolation-filters="sRGB">
<feFlood flood-opacity="0" result="BackgroundImageFix"/>
<feColorMatrix in="SourceAlpha" type="matrix" values="0 0 0 0 0 0 0 0 0 0 0 0 0 0 0 0 0 0 127 0" result="hardAlpha"/>
<feOffset dy="1"/>
<feColorMatrix type="matrix" values="0 0 0 0 0.537255 0 0 0 0 0.541176 0 0 0 0 0.552941 0 0 0 1 0"/>
<feBlend mode="normal" in2="BackgroundImageFix" result="effect1_dropShadow_864_1066"/>
<feBlend mode="normal" in="SourceGraphic" in2="effect1_dropShadow_864_1066" result="shape"/>
</filter>
<filter id="filter10_d_864_1066" x="200.107" y="116" width="48" height="43" filterUnits="userSpaceOnUse" color-interpolation-filters="sRGB">
<feFlood flood-opacity="0" result="BackgroundImageFix"/>
<feColorMatrix in="SourceAlpha" type="matrix" values="0 0 0 0 0 0 0 0 0 0 0 0 0 0 0 0 0 0 127 0" result="hardAlpha"/>
<feOffset dy="1"/>
<feColorMatrix type="matrix" values="0 0 0 0 0.537255 0 0 0 0 0.541176 0 0 0 0 0.552941 0 0 0 1 0"/>
<feBlend mode="normal" in2="BackgroundImageFix" result="effect1_dropShadow_864_1066"/>
<feBlend mode="normal" in="SourceGraphic" in2="effect1_dropShadow_864_1066" result="shape"/>
</filter>
<filter id="filter11_d_864_1066" x="144.854" y="116" width="48" height="43" filterUnits="userSpaceOnUse" color-interpolation-filters="sRGB">
<feFlood flood-opacity="0" result="BackgroundImageFix"/>
<feColorMatrix in="SourceAlpha" type="matrix" values="0 0 0 0 0 0 0 0 0 0 0 0 0 0 0 0 0 0 127 0" result="hardAlpha"/>
<feOffset dy="1"/>
<feColorMatrix type="matrix" values="0 0 0 0 0.537255 0 0 0 0 0.541176 0 0 0 0 0.552941 0 0 0 1 0"/>
<feBlend mode="normal" in2="BackgroundImageFix" result="effect1_dropShadow_864_1066"/>
<feBlend mode="normal" in="SourceGraphic" in2="effect1_dropShadow_864_1066" result="shape"/>
</filter>
<filter id="filter12_d_864_1066" x="88.1074" y="116" width="48" height="43" filterUnits="userSpaceOnUse" color-interpolation-filters="sRGB">
<feFlood flood-opacity="0" result="BackgroundImageFix"/>
<feColorMatrix in="SourceAlpha" type="matrix" values="0 0 0 0 0 0 0 0 0 0 0 0 0 0 0 0 0 0 127 0" result="hardAlpha"/>
<feOffset dy="1"/>
<feColorMatrix type="matrix" values="0 0 0 0 0.537255 0 0 0 0 0.541176 0 0 0 0 0.552941 0 0 0 1 0"/>
<feBlend mode="normal" in2="BackgroundImageFix" result="effect1_dropShadow_864_1066"/>
<feBlend mode="normal" in="SourceGraphic" in2="effect1_dropShadow_864_1066" result="shape"/>
</filter>
<filter id="filter13_d_864_1066" x="480.854" y="62" width="48" height="43" filterUnits="userSpaceOnUse" color-interpolation-filters="sRGB">
<feFlood flood-opacity="0" result="BackgroundImageFix"/>
<feColorMatrix in="SourceAlpha" type="matrix" values="0 0 0 0 0 0 0 0 0 0 0 0 0 0 0 0 0 0 127 0" result="hardAlpha"/>
<feOffset dy="1"/>
<feColorMatrix type="matrix" values="0 0 0 0 0.537255 0 0 0 0 0.541176 0 0 0 0 0.552941 0 0 0 1 0"/>
<feBlend mode="normal" in2="BackgroundImageFix" result="effect1_dropShadow_864_1066"/>
<feBlend mode="normal" in="SourceGraphic" in2="effect1_dropShadow_864_1066" result="shape"/>
</filter>
<filter id="filter14_d_864_1066" x="424.107" y="62" width="48" height="43" filterUnits="userSpaceOnUse" color-interpolation-filters="sRGB">
<feFlood flood-opacity="0" result="BackgroundImageFix"/>
<feColorMatrix in="SourceAlpha" type="matrix" values="0 0 0 0 0 0 0 0 0 0 0 0 0 0 0 0 0 0 127 0" result="hardAlpha"/>
<feOffset dy="1"/>
<feColorMatrix type="matrix" values="0 0 0 0 0.537255 0 0 0 0 0.541176 0 0 0 0 0.552941 0 0 0 1 0"/>
<feBlend mode="normal" in2="BackgroundImageFix" result="effect1_dropShadow_864_1066"/>
<feBlend mode="normal" in="SourceGraphic" in2="effect1_dropShadow_864_1066" result="shape"/>
</filter>
<filter id="filter15_d_864_1066" x="368.854" y="62" width="48" height="43" filterUnits="userSpaceOnUse" color-interpolation-filters="sRGB">
<feFlood flood-opacity="0" result="BackgroundImageFix"/>
<feColorMatrix in="SourceAlpha" type="matrix" values="0 0 0 0 0 0 0 0 0 0 0 0 0 0 0 0 0 0 127 0" result="hardAlpha"/>
<feOffset dy="1"/>
<feColorMatrix type="matrix" values="0 0 0 0 0.537255 0 0 0 0 0.541176 0 0 0 0 0.552941 0 0 0 1 0"/>
<feBlend mode="normal" in2="BackgroundImageFix" result="effect1_dropShadow_864_1066"/>
<feBlend mode="normal" in="SourceGraphic" in2="effect1_dropShadow_864_1066" result="shape"/>
</filter>
<filter id="filter16_d_864_1066" x="312.107" y="62" width="48" height="43" filterUnits="userSpaceOnUse" color-interpolation-filters="sRGB">
<feFlood flood-opacity="0" result="BackgroundImageFix"/>
<feColorMatrix in="SourceAlpha" type="matrix" values="0 0 0 0 0 0 0 0 0 0 0 0 0 0 0 0 0 0 127 0" result="hardAlpha"/>
<feOffset dy="1"/>
<feColorMatrix type="matrix" values="0 0 0 0 0.537255 0 0 0 0 0.541176 0 0 0 0 0.552941 0 0 0 1 0"/>
<feBlend mode="normal" in2="BackgroundImageFix" result="effect1_dropShadow_864_1066"/>
<feBlend mode="normal" in="SourceGraphic" in2="effect1_dropShadow_864_1066" result="shape"/>
</filter>
<filter id="filter17_d_864_1066" x="256.854" y="62" width="48" height="43" filterUnits="userSpaceOnUse" color-interpolation-filters="sRGB">
<feFlood flood-opacity="0" result="BackgroundImageFix"/>
<feColorMatrix in="SourceAlpha" type="matrix" values="0 0 0 0 0 0 0 0 0 0 0 0 0 0 0 0 0 0 127 0" result="hardAlpha"/>
<feOffset dy="1"/>
<feColorMatrix type="matrix" values="0 0 0 0 0.537255 0 0 0 0 0.541176 0 0 0 0 0.552941 0 0 0 1 0"/>
<feBlend mode="normal" in2="BackgroundImageFix" result="effect1_dropShadow_864_1066"/>
<feBlend mode="normal" in="SourceGraphic" in2="effect1_dropShadow_864_1066" result="shape"/>
</filter>
<filter id="filter18_d_864_1066" x="200.107" y="62" width="48" height="43" filterUnits="userSpaceOnUse" color-interpolation-filters="sRGB">
<feFlood flood-opacity="0" result="BackgroundImageFix"/>
<feColorMatrix in="SourceAlpha" type="matrix" values="0 0 0 0 0 0 0 0 0 0 0 0 0 0 0 0 0 0 127 0" result="hardAlpha"/>
<feOffset dy="1"/>
<feColorMatrix type="matrix" values="0 0 0 0 0.537255 0 0 0 0 0.541176 0 0 0 0 0.552941 0 0 0 1 0"/>
<feBlend mode="normal" in2="BackgroundImageFix" result="effect1_dropShadow_864_1066"/>
<feBlend mode="normal" in="SourceGraphic" in2="effect1_dropShadow_864_1066" result="shape"/>
</filter>
<filter id="filter19_d_864_1066" x="144.854" y="62" width="48" height="43" filterUnits="userSpaceOnUse" color-interpolation-filters="sRGB">
<feFlood flood-opacity="0" result="BackgroundImageFix"/>
<feColorMatrix in="SourceAlpha" type="matrix" values="0 0 0 0 0 0 0 0 0 0 0 0 0 0 0 0 0 0 127 0" result="hardAlpha"/>
<feOffset dy="1"/>
<feColorMatrix type="matrix" values="0 0 0 0 0.537255 0 0 0 0 0.541176 0 0 0 0 0.552941 0 0 0 1 0"/>
<feBlend mode="normal" in2="BackgroundImageFix" result="effect1_dropShadow_864_1066"/>
<feBlend mode="normal" in="SourceGraphic" in2="effect1_dropShadow_864_1066" result="shape"/>
</filter>
<filter id="filter20_d_864_1066" x="88.1074" y="62" width="48" height="43" filterUnits="userSpaceOnUse" color-interpolation-filters="sRGB">
<feFlood flood-opacity="0" result="BackgroundImageFix"/>
<feColorMatrix in="SourceAlpha" type="matrix" values="0 0 0 0 0 0 0 0 0 0 0 0 0 0 0 0 0 0 127 0" result="hardAlpha"/>
<feOffset dy="1"/>
<feColorMatrix type="matrix" values="0 0 0 0 0.537255 0 0 0 0 0.541176 0 0 0 0 0.552941 0 0 0 1 0"/>
<feBlend mode="normal" in2="BackgroundImageFix" result="effect1_dropShadow_864_1066"/>
<feBlend mode="normal" in="SourceGraphic" in2="effect1_dropShadow_864_1066" result="shape"/>
</filter>
<filter id="filter21_d_864_1066" x="32.8535" y="62" width="48" height="43" filterUnits="userSpaceOnUse" color-interpolation-filters="sRGB">
<feFlood flood-opacity="0" result="BackgroundImageFix"/>
<feColorMatrix in="SourceAlpha" type="matrix" values="0 0 0 0 0 0 0 0 0 0 0 0 0 0 0 0 0 0 127 0" result="hardAlpha"/>
<feOffset dy="1"/>
<feColorMatrix type="matrix" values="0 0 0 0 0.537255 0 0 0 0 0.541176 0 0 0 0 0.552941 0 0 0 1 0"/>
<feBlend mode="normal" in2="BackgroundImageFix" result="effect1_dropShadow_864_1066"/>
<feBlend mode="normal" in="SourceGraphic" in2="effect1_dropShadow_864_1066" result="shape"/>
</filter>
<filter id="filter22_d_864_1066" x="507.734" y="8" width="48" height="43" filterUnits="userSpaceOnUse" color-interpolation-filters="sRGB">
<feFlood flood-opacity="0" result="BackgroundImageFix"/>
<feColorMatrix in="SourceAlpha" type="matrix" values="0 0 0 0 0 0 0 0 0 0 0 0 0 0 0 0 0 0 127 0" result="hardAlpha"/>
<feOffset dy="1"/>
<feColorMatrix type="matrix" values="0 0 0 0 0.537255 0 0 0 0 0.541176 0 0 0 0 0.552941 0 0 0 1 0"/>
<feBlend mode="normal" in2="BackgroundImageFix" result="effect1_dropShadow_864_1066"/>
<feBlend mode="normal" in="SourceGraphic" in2="effect1_dropShadow_864_1066" result="shape"/>
</filter>
<filter id="filter23_d_864_1066" x="452.48" y="8" width="48" height="43" filterUnits="userSpaceOnUse" color-interpolation-filters="sRGB">
<feFlood flood-opacity="0" result="BackgroundImageFix"/>
<feColorMatrix in="SourceAlpha" type="matrix" values="0 0 0 0 0 0 0 0 0 0 0 0 0 0 0 0 0 0 127 0" result="hardAlpha"/>
<feOffset dy="1"/>
<feColorMatrix type="matrix" values="0 0 0 0 0.537255 0 0 0 0 0.541176 0 0 0 0 0.552941 0 0 0 1 0"/>
<feBlend mode="normal" in2="BackgroundImageFix" result="effect1_dropShadow_864_1066"/>
<feBlend mode="normal" in="SourceGraphic" in2="effect1_dropShadow_864_1066" result="shape"/>
</filter>
<filter id="filter24_d_864_1066" x="395.734" y="8" width="48" height="43" filterUnits="userSpaceOnUse" color-interpolation-filters="sRGB">
<feFlood flood-opacity="0" result="BackgroundImageFix"/>
<feColorMatrix in="SourceAlpha" type="matrix" values="0 0 0 0 0 0 0 0 0 0 0 0 0 0 0 0 0 0 127 0" result="hardAlpha"/>
<feOffset dy="1"/>
<feColorMatrix type="matrix" values="0 0 0 0 0.537255 0 0 0 0 0.541176 0 0 0 0 0.552941 0 0 0 1 0"/>
<feBlend mode="normal" in2="BackgroundImageFix" result="effect1_dropShadow_864_1066"/>
<feBlend mode="normal" in="SourceGraphic" in2="effect1_dropShadow_864_1066" result="shape"/>
</filter>
<filter id="filter25_d_864_1066" x="340.48" y="8" width="48" height="43" filterUnits="userSpaceOnUse" color-interpolation-filters="sRGB">
<feFlood flood-opacity="0" result="BackgroundImageFix"/>
<feColorMatrix in="SourceAlpha" type="matrix" values="0 0 0 0 0 0 0 0 0 0 0 0 0 0 0 0 0 0 127 0" result="hardAlpha"/>
<feOffset dy="1"/>
<feColorMatrix type="matrix" values="0 0 0 0 0.537255 0 0 0 0 0.541176 0 0 0 0 0.552941 0 0 0 1 0"/>
<feBlend mode="normal" in2="BackgroundImageFix" result="effect1_dropShadow_864_1066"/>
<feBlend mode="normal" in="SourceGraphic" in2="effect1_dropShadow_864_1066" result="shape"/>
</filter>
<filter id="filter26_d_864_1066" x="283.734" y="8" width="48" height="43" filterUnits="userSpaceOnUse" color-interpolation-filters="sRGB">
<feFlood flood-opacity="0" result="BackgroundImageFix"/>
<feColorMatrix in="SourceAlpha" type="matrix" values="0 0 0 0 0 0 0 0 0 0 0 0 0 0 0 0 0 0 127 0" result="hardAlpha"/>
<feOffset dy="1"/>
<feColorMatrix type="matrix" values="0 0 0 0 0.537255 0 0 0 0 0.541176 0 0 0 0 0.552941 0 0 0 1 0"/>
<feBlend mode="normal" in2="BackgroundImageFix" result="effect1_dropShadow_864_1066"/>
<feBlend mode="normal" in="SourceGraphic" in2="effect1_dropShadow_864_1066" result="shape"/>
</filter>
<filter id="filter27_d_864_1066" x="228.48" y="8" width="48" height="43" filterUnits="userSpaceOnUse" color-interpolation-filters="sRGB">
<feFlood flood-opacity="0" result="BackgroundImageFix"/>
<feColorMatrix in="SourceAlpha" type="matrix" values="0 0 0 0 0 0 0 0 0 0 0 0 0 0 0 0 0 0 127 0" result="hardAlpha"/>
<feOffset dy="1"/>
<feColorMatrix type="matrix" values="0 0 0 0 0.537255 0 0 0 0 0.541176 0 0 0 0 0.552941 0 0 0 1 0"/>
<feBlend mode="normal" in2="BackgroundImageFix" result="effect1_dropShadow_864_1066"/>
<feBlend mode="normal" in="SourceGraphic" in2="effect1_dropShadow_864_1066" result="shape"/>
</filter>
<filter id="filter28_d_864_1066" x="171.734" y="8" width="48" height="43" filterUnits="userSpaceOnUse" color-interpolation-filters="sRGB">
<feFlood flood-opacity="0" result="BackgroundImageFix"/>
<feColorMatrix in="SourceAlpha" type="matrix" values="0 0 0 0 0 0 0 0 0 0 0 0 0 0 0 0 0 0 127 0" result="hardAlpha"/>
<feOffset dy="1"/>
<feColorMatrix type="matrix" values="0 0 0 0 0.537255 0 0 0 0 0.541176 0 0 0 0 0.552941 0 0 0 1 0"/>
<feBlend mode="normal" in2="BackgroundImageFix" result="effect1_dropShadow_864_1066"/>
<feBlend mode="normal" in="SourceGraphic" in2="effect1_dropShadow_864_1066" result="shape"/>
</filter>
<filter id="filter29_d_864_1066" x="116.48" y="8" width="48" height="43" filterUnits="userSpaceOnUse" color-interpolation-filters="sRGB">
<feFlood flood-opacity="0" result="BackgroundImageFix"/>
<feColorMatrix in="SourceAlpha" type="matrix" values="0 0 0 0 0 0 0 0 0 0 0 0 0 0 0 0 0 0 127 0" result="hardAlpha"/>
<feOffset dy="1"/>
<feColorMatrix type="matrix" values="0 0 0 0 0.537255 0 0 0 0 0.541176 0 0 0 0 0.552941 0 0 0 1 0"/>
<feBlend mode="normal" in2="BackgroundImageFix" result="effect1_dropShadow_864_1066"/>
<feBlend mode="normal" in="SourceGraphic" in2="effect1_dropShadow_864_1066" result="shape"/>
</filter>
<filter id="filter30_d_864_1066" x="59.7344" y="8" width="48" height="43" filterUnits="userSpaceOnUse" color-interpolation-filters="sRGB">
<feFlood flood-opacity="0" result="BackgroundImageFix"/>
<feColorMatrix in="SourceAlpha" type="matrix" values="0 0 0 0 0 0 0 0 0 0 0 0 0 0 0 0 0 0 127 0" result="hardAlpha"/>
<feOffset dy="1"/>
<feColorMatrix type="matrix" values="0 0 0 0 0.537255 0 0 0 0 0.541176 0 0 0 0 0.552941 0 0 0 1 0"/>
<feBlend mode="normal" in2="BackgroundImageFix" result="effect1_dropShadow_864_1066"/>
<feBlend mode="normal" in="SourceGraphic" in2="effect1_dropShadow_864_1066" result="shape"/>
</filter>
<filter id="filter31_d_864_1066" x="4.48047" y="8" width="48" height="43" filterUnits="userSpaceOnUse" color-interpolation-filters="sRGB">
<feFlood flood-opacity="0" result="BackgroundImageFix"/>
<feColorMatrix in="SourceAlpha" type="matrix" values="0 0 0 0 0 0 0 0 0 0 0 0 0 0 0 0 0 0 127 0" result="hardAlpha"/>
<feOffset dy="1"/>
<feColorMatrix type="matrix" values="0 0 0 0 0.537255 0 0 0 0 0.541176 0 0 0 0 0.552941 0 0 0 1 0"/>
<feBlend mode="normal" in2="BackgroundImageFix" result="effect1_dropShadow_864_1066"/>
<feBlend mode="normal" in="SourceGraphic" in2="effect1_dropShadow_864_1066" result="shape"/>
</filter>
</defs>
</svg>
