<svg width="134" height="88" viewBox="0 0 134 88" fill="none" xmlns="http://www.w3.org/2000/svg">
<path d="M57.8566 14.2763C57.521 14.5808 57.582 15.095 57.7718 15.3025L60.145 17.896L59.0262 18.911L56.653 16.3175C56.3681 16.0062 55.9545 16.0017 55.6189 16.3062C55.2832 16.6107 55.3443 17.1249 55.5341 17.3324L57.9073 19.926L56.7885 20.9409L54.4152 18.3474C54.1304 18.0361 53.7168 18.0316 53.3812 18.3362C53.0455 18.6406 53.1065 19.1548 53.2963 19.3623L56.429 22.7858C57.2833 23.7195 58.731 23.7352 59.7211 23.027L66.3661 30.289C66.9357 30.9114 67.7629 30.9204 68.4343 30.3114C69.1056 29.7024 69.1734 28.8815 68.6038 28.259L61.9588 20.9971C62.759 20.0814 62.8777 18.6447 62.0234 17.711L58.8907 14.2875C58.7008 14.08 58.1923 13.9718 57.8566 14.2763ZM60.569 12.7651L66.2647 18.9896L67.3836 17.9746L73.0793 24.1992C73.6488 24.8216 74.4763 24.8306 75.1477 24.2217C75.8185 23.6127 75.8869 22.7917 75.3174 22.1693L61.0777 6.60794C59.1757 8.3334 58.9552 11.0015 60.569 12.7651ZM67.4518 4.62295C65.8854 6.04389 66.0786 8.71648 67.7873 10.5839C68.8145 11.9303 70.5301 12.4624 72.3131 12.1737L78.6738 19.1244C79.2433 19.7469 80.0708 19.7559 80.7415 19.1469C81.413 18.5379 81.4807 17.717 80.9112 17.0945L74.5512 10.1438C75.0052 8.40259 74.6324 6.65245 73.3815 5.50904C71.673 3.64168 69.0182 3.202 67.4518 4.62295Z" fill="#171717"/>
<path d="M1.83398 55.5593V39.3786H6.43071V51.9301H14.1848V55.5593H1.83398ZM22.0642 55.7673C20.6867 55.7673 19.464 55.4899 18.3961 54.9351C17.3281 54.3804 16.4847 53.6176 15.8655 52.6468C15.262 51.6605 14.9602 50.5356 14.9602 49.2719C14.9602 48.0083 15.262 46.8911 15.8655 45.9202C16.4847 44.9494 17.3281 44.1943 18.3961 43.6549C19.464 43.1002 20.6867 42.8228 22.0642 42.8228C23.4417 42.8228 24.6644 43.1002 25.7323 43.6549C26.8157 44.1943 27.6592 44.9494 28.2628 45.9202C28.8665 46.8911 29.1683 48.0083 29.1683 49.2719C29.1683 50.5356 28.8665 51.6605 28.2628 52.6468C27.6592 53.6176 26.8157 54.3804 25.7323 54.9351C24.6644 55.4899 23.4417 55.7673 22.0642 55.7673ZM22.0642 52.2769C22.575 52.2769 23.0238 52.1614 23.4107 51.9301C23.8131 51.699 24.1304 51.36 24.3626 50.9131C24.5947 50.4508 24.7108 49.9037 24.7108 49.2719C24.7108 48.6401 24.5947 48.1085 24.3626 47.677C24.1304 47.2301 23.8131 46.8911 23.4107 46.6599C23.0238 46.4287 22.575 46.3132 22.0642 46.3132C21.569 46.3132 21.1201 46.4287 20.7177 46.6599C20.3307 46.8911 20.0135 47.2301 19.7658 47.677C19.5337 48.1085 19.4176 48.6401 19.4176 49.2719C19.4176 49.9037 19.5337 50.4508 19.7658 50.9131C20.0135 51.36 20.3307 51.699 20.7177 51.9301C21.1201 52.1614 21.569 52.2769 22.0642 52.2769ZM37.6424 55.7673C36.2494 55.7673 35.0035 55.4899 33.9047 54.9351C32.8212 54.3804 31.97 53.6176 31.3509 52.6468C30.7318 51.6605 30.4222 50.5356 30.4222 49.2719C30.4222 48.0083 30.7318 46.8911 31.3509 45.9202C31.97 44.9494 32.8212 44.1943 33.9047 43.6549C35.0035 43.1002 36.2494 42.8228 37.6424 42.8228C39.0663 42.8228 40.2967 43.1233 41.3337 43.7243C42.3707 44.3252 43.1058 45.1728 43.5392 46.2669L40.1265 48.0006C39.8324 47.415 39.4686 46.9912 39.0353 46.7293C38.6019 46.4519 38.1299 46.3132 37.6192 46.3132C37.1084 46.3132 36.6441 46.4287 36.2262 46.6599C35.8083 46.8911 35.4756 47.2301 35.2279 47.677C34.9958 48.1085 34.8797 48.6401 34.8797 49.2719C34.8797 49.9191 34.9958 50.4662 35.2279 50.9131C35.4756 51.36 35.8083 51.699 36.2262 51.9301C36.6441 52.1614 37.1084 52.2769 37.6192 52.2769C38.1299 52.2769 38.6019 52.1459 39.0353 51.8839C39.4686 51.6065 39.8324 51.175 40.1265 50.5895L43.5392 52.3232C43.1058 53.4173 42.3707 54.2648 41.3337 54.8658C40.2967 55.4668 39.0663 55.7673 37.6424 55.7673ZM52.8845 55.5593V53.2246L52.5826 52.6468V48.3473C52.5826 47.6538 52.3659 47.1222 51.9326 46.7523C51.5147 46.3671 50.8415 46.1745 49.9128 46.1745C49.3092 46.1745 48.6979 46.2746 48.0788 46.475C47.4597 46.6599 46.9334 46.9219 46.5001 47.2609L45.0143 44.279C45.7262 43.8168 46.5775 43.4623 47.568 43.2157C48.574 42.9538 49.5723 42.8228 50.5628 42.8228C52.6058 42.8228 54.1846 43.2928 55.2989 44.2328C56.4287 45.1574 56.9936 46.6137 56.9936 48.6016V55.5593H52.8845ZM49.1699 55.7673C48.1639 55.7673 47.3126 55.5978 46.6162 55.2587C45.9197 54.9197 45.3857 54.4574 45.0143 53.8718C44.6583 53.2863 44.4803 52.6313 44.4803 51.9071C44.4803 51.1366 44.6738 50.4739 45.0607 49.9191C45.4632 49.349 46.0745 48.9175 46.8947 48.6247C47.7151 48.3165 48.7752 48.1624 50.0753 48.1624H53.047V50.4508H50.679C49.967 50.4508 49.464 50.5663 49.1699 50.7975C48.8913 51.0287 48.7521 51.3368 48.7521 51.7221C48.7521 52.1074 48.899 52.4156 49.1931 52.6468C49.4872 52.8779 49.8896 52.9934 50.4003 52.9934C50.8802 52.9934 51.3135 52.8779 51.7004 52.6468C52.1028 52.4002 52.3969 52.0303 52.5826 51.5372L53.1863 53.1553C52.9541 54.0182 52.4975 54.6732 51.8165 55.1201C51.151 55.5516 50.2688 55.7673 49.1699 55.7673ZM59.7779 55.5593V38.4078H64.1889V55.5593H59.7779ZM74.0204 55.5593V39.3786H81.7047C83.5002 39.3786 85.079 39.7099 86.4411 40.3725C87.8032 41.0352 88.863 41.9675 89.6214 43.1695C90.3955 44.3715 90.7825 45.8046 90.7825 47.469C90.7825 49.1178 90.3955 50.551 89.6214 51.7683C88.863 52.9704 87.8032 53.9027 86.4411 54.5653C85.079 55.2279 83.5002 55.5593 81.7047 55.5593H74.0204ZM78.617 51.9071H81.5194C82.4481 51.9071 83.2529 51.7375 83.9335 51.3985C84.6299 51.0441 85.1716 50.5356 85.5587 49.8729C85.9457 49.1949 86.1396 48.3935 86.1396 47.469C86.1396 46.5289 85.9457 45.7276 85.5587 45.0649C85.1716 44.4023 84.6299 43.9015 83.9335 43.5625C83.2529 43.2081 82.4481 43.0308 81.5194 43.0308H78.617V51.9071ZM92.9921 55.5593V43.0308H97.4027V55.5593H92.9921ZM95.1974 41.6439C94.3927 41.6439 93.7426 41.4205 93.2473 40.9736C92.7519 40.5267 92.5046 39.9719 92.5046 39.3092C92.5046 38.6466 92.7519 38.0919 93.2473 37.645C93.7426 37.1981 94.3927 36.9746 95.1974 36.9746C96.0021 36.9746 96.6521 37.1904 97.1475 37.6218C97.6429 38.0379 97.8902 38.5773 97.8902 39.2399C97.8902 39.9334 97.6429 40.5113 97.1475 40.9736C96.6678 41.4205 96.0178 41.6439 95.1974 41.6439ZM104.843 55.7673C103.775 55.7673 102.731 55.644 101.709 55.3975C100.703 55.1509 99.8902 54.8427 99.2716 54.4728L100.594 51.4679C101.182 51.8223 101.872 52.1074 102.661 52.3232C103.45 52.5234 104.224 52.6236 104.982 52.6236C105.725 52.6236 106.236 52.5466 106.515 52.3925C106.808 52.2384 106.956 52.0303 106.956 51.7683C106.956 51.5218 106.816 51.3446 106.537 51.2367C106.274 51.1134 105.919 51.021 105.47 50.9593C105.036 50.8977 104.557 50.8284 104.031 50.7513C103.504 50.6742 102.97 50.5741 102.428 50.4508C101.902 50.3121 101.415 50.1118 100.966 49.8498C100.532 49.5725 100.185 49.2026 99.9216 48.7403C99.6579 48.278 99.5267 47.6924 99.5267 46.9835C99.5267 46.1822 99.7591 45.4734 100.223 44.8569C100.703 44.2251 101.399 43.7319 102.312 43.3775C103.226 43.0077 104.34 42.8228 105.656 42.8228C106.537 42.8228 107.428 42.9152 108.325 43.1002C109.239 43.2697 110.004 43.5317 110.624 43.8861L109.3 46.8679C108.681 46.5135 108.062 46.2746 107.443 46.1514C106.824 46.0127 106.236 45.9433 105.679 45.9433C104.936 45.9433 104.41 46.0281 104.1 46.1976C103.806 46.3671 103.659 46.5751 103.659 46.8217C103.659 47.0683 103.79 47.2609 104.053 47.3996C104.317 47.5229 104.665 47.623 105.098 47.7001C105.547 47.7617 106.035 47.831 106.561 47.9081C107.087 47.9698 107.614 48.0699 108.14 48.2086C108.681 48.3473 109.169 48.5553 109.602 48.8327C110.051 49.0947 110.407 49.4568 110.67 49.9191C110.933 50.366 111.065 50.9439 111.065 51.6528C111.065 52.4233 110.825 53.1167 110.345 53.7331C109.881 54.3496 109.185 54.8427 108.256 55.2125C107.343 55.5823 106.205 55.7673 104.843 55.7673ZM121.161 42.8228C122.136 42.8228 123.018 43.0231 123.808 43.4238C124.597 43.809 125.216 44.41 125.665 45.2267C126.129 46.0435 126.361 47.0991 126.361 48.3935V55.5593H121.95V49.1101C121.95 48.2163 121.764 47.5691 121.393 47.1684C121.037 46.7523 120.534 46.5443 119.884 46.5443C119.42 46.5443 118.994 46.6522 118.607 46.8679C118.22 47.0683 117.918 47.3842 117.702 47.8156C117.485 48.2471 117.377 48.8096 117.377 49.503V55.5593H112.966V38.4078H117.377V46.5905L116.355 45.5504C116.835 44.6412 117.493 43.9632 118.329 43.5162C119.164 43.0539 120.109 42.8228 121.161 42.8228Z" fill="#B57A0E"/>
<path d="M34.7506 82.85C33.466 82.85 32.2743 82.6499 31.1754 82.249C30.0919 81.8331 29.1479 81.2476 28.343 80.4925C27.5537 79.7374 26.9346 78.851 26.4858 77.834C26.0369 76.8015 25.8125 75.6688 25.8125 74.4361C25.8125 73.2034 26.0369 72.0786 26.4858 71.0616C26.9346 70.0291 27.5537 69.1352 28.343 68.3801C29.1479 67.6251 30.0919 67.0472 31.1754 66.6465C32.2743 66.2305 33.466 66.0225 34.7506 66.0225C36.2519 66.0225 37.5907 66.2844 38.767 66.8084C39.9587 67.3323 40.9492 68.0874 41.7385 69.0736L38.8133 71.7088C38.2872 71.0921 37.7068 70.6224 37.0722 70.2988C36.4531 69.9751 35.7567 69.8133 34.9828 69.8133C34.3172 69.8133 33.7059 69.9212 33.1487 70.137C32.5915 70.3527 32.1118 70.6686 31.7094 71.0843C31.3224 71.4853 31.0128 71.9707 30.7807 72.5406C30.564 73.1111 30.4557 73.7428 30.4557 74.4361C30.4557 75.1295 30.564 75.7618 30.7807 76.3317C31.0128 76.9022 31.3224 77.3948 31.7094 77.8113C32.1118 78.2116 32.5915 78.5203 33.1487 78.736C33.7059 78.9518 34.3172 79.0597 34.9828 79.0597C35.7567 79.0597 36.4531 78.8979 37.0722 78.5742C37.7068 78.2506 38.2872 77.7801 38.8133 77.1641L41.7385 79.7991C40.9492 80.77 39.9587 81.5251 38.767 82.0644C37.5907 82.5882 36.2519 82.85 34.7506 82.85ZM49.4857 82.7344C48.1083 82.7344 46.8856 82.4576 45.8176 81.9026C44.7498 81.3477 43.9062 80.5848 43.2872 79.6139C42.6835 78.6282 42.3817 77.5026 42.3817 76.2394C42.3817 74.9755 42.6835 73.8584 43.2872 72.8876C43.9062 71.9168 44.7498 71.1617 45.8176 70.6224C46.8856 70.0676 48.1083 69.7902 49.4857 69.7902C50.8632 69.7902 52.0859 70.0676 53.1538 70.6224C54.2373 71.1617 55.0808 71.9168 55.6844 72.8876C56.288 73.8584 56.5898 74.9755 56.5898 76.2394C56.5898 77.5026 56.288 78.6282 55.6844 79.6139C55.0808 80.5848 54.2373 81.3477 53.1538 81.9026C52.0859 82.4576 50.8632 82.7344 49.4857 82.7344ZM49.4857 79.2442C49.9965 79.2442 50.4453 79.1285 50.8323 78.8979C51.2347 78.6665 51.552 78.3273 51.7841 77.8802C52.0163 77.4182 52.1324 76.871 52.1324 76.2394C52.1324 75.6078 52.0163 75.0755 51.7841 74.644C51.552 74.1977 51.2347 73.8584 50.8323 73.6271C50.4453 73.3964 49.9965 73.2808 49.4857 73.2808C48.9905 73.2808 48.5417 73.3964 48.1393 73.6271C47.7523 73.8584 47.435 74.1977 47.1874 74.644C46.9552 75.0755 46.8392 75.6078 46.8392 76.2394C46.8392 76.871 46.9552 77.4182 47.1874 77.8802C47.435 78.3273 47.7523 78.6665 48.1393 78.8979C48.5417 79.1285 48.9905 79.2442 49.4857 79.2442ZM58.6332 82.5264V69.9982H62.8352V73.6505L62.2084 72.6101C62.5798 71.6705 63.1835 70.9693 64.0192 70.5068C64.855 70.0291 65.8687 69.7902 67.0605 69.7902V73.7428C66.8593 73.7122 66.6813 73.6966 66.5265 73.6966C66.3872 73.681 66.2325 73.6732 66.0622 73.6732C65.1645 73.6732 64.4371 73.9202 63.8799 74.4134C63.3227 74.891 63.0442 75.6766 63.0442 76.771V82.5264H58.6332ZM77.0762 69.7902C78.0513 69.7902 78.9329 69.9906 79.7227 70.3912C80.5117 70.7764 81.1311 71.3774 81.5795 72.1942C82.0442 73.0111 82.2765 74.0664 82.2765 75.3608V82.5264H77.8652V76.0776C77.8652 75.1834 77.6792 74.5362 77.3078 74.1359C76.9522 73.72 76.449 73.5114 75.7989 73.5114C75.3349 73.5114 74.9094 73.6193 74.5224 73.835C74.1353 74.0359 73.8331 74.3517 73.6164 74.7831C73.3997 75.2146 73.2914 75.7767 73.2914 76.4708V82.5264H68.8807V69.9982H73.0826V73.5582L72.27 72.5179C72.7497 71.6088 73.4076 70.9306 74.2437 70.4836C75.079 70.0213 76.0234 69.7902 77.0762 69.7902ZM91.7977 82.7344C90.3116 82.7344 89.0115 82.4576 87.8974 81.9026C86.7983 81.332 85.9394 80.562 85.3208 79.5912C84.717 78.6048 84.4148 77.4877 84.4148 76.2394C84.4148 74.9911 84.7092 73.8819 85.2972 72.911C85.9009 71.9246 86.7292 71.1617 87.7812 70.6224C88.834 70.0676 90.0179 69.7902 91.3337 69.7902C92.5717 69.7902 93.7015 70.0445 94.7229 70.553C95.7443 71.046 96.5568 71.7784 97.1605 72.7492C97.7642 73.72 98.0657 74.8988 98.0657 76.2855C98.0657 76.4395 98.0579 76.6169 98.0429 76.8171C98.0272 77.0172 98.0116 77.2024 97.9966 77.372H88.0364V75.0606H95.6516L93.9802 75.7079C93.9951 75.1373 93.8868 74.644 93.6551 74.2282C93.4385 73.8123 93.1284 73.4887 92.7264 73.2573C92.3394 73.026 91.8825 72.911 91.3565 72.911C90.8304 72.911 90.3657 73.026 89.9637 73.2573C89.5767 73.4887 89.2752 73.8201 89.0585 74.2516C88.8418 74.6675 88.7335 75.1607 88.7335 75.7306V76.4012C88.7335 77.0172 88.8568 77.5495 89.1048 77.9959C89.3679 78.443 89.7392 78.79 90.2189 79.0362C90.6986 79.2676 91.2716 79.3833 91.9367 79.3833C92.556 79.3833 93.0821 79.2981 93.5154 79.1285C93.9645 78.944 94.4057 78.6665 94.839 78.2968L97.1605 80.7004C96.5568 81.3633 95.8141 81.8714 94.9317 82.2262C94.0493 82.5655 93.0051 82.7344 91.7977 82.7344ZM100.1 82.5264V69.9982H104.302V73.6505L103.675 72.6101C104.047 71.6705 104.65 70.9693 105.486 70.5068C106.322 70.0291 107.335 69.7902 108.527 69.7902V73.7428C108.326 73.7122 108.148 73.6966 107.993 73.6966C107.853 73.681 107.699 73.6732 107.528 73.6732C106.631 73.6732 105.903 73.9202 105.347 74.4134C104.789 74.891 104.511 75.6766 104.511 76.771V82.5264H100.1Z" fill="#B57A0E"/>
</svg>
