<svg width="191" height="142" viewBox="0 0 191 142" fill="none" xmlns="http://www.w3.org/2000/svg">
<g id="street-food/rafiki">
<g id="background-complete">
<path id="Vector" d="M0.5 124.629H190.5V124.724H0.5V124.629Z" fill="#EBEBEB"/>
<path id="Vector_2" d="M100.44 107.679H173.814C174.389 107.678 174.94 107.449 175.346 107.042C175.752 106.635 175.98 106.084 175.98 105.509V2.36564C175.975 1.79413 175.745 1.24768 175.34 0.844967C174.934 0.442258 174.386 0.215823 173.814 0.214844H100.44C99.8648 0.214844 99.3129 0.443447 98.906 0.850363C98.4991 1.25728 98.2705 1.80918 98.2705 2.38464V105.509C98.2705 106.085 98.4991 106.636 98.906 107.043C99.3129 107.45 99.8648 107.679 100.44 107.679ZM173.814 0.290844C174.364 0.291851 174.891 0.510888 175.279 0.89988C175.667 1.28887 175.885 1.81603 175.885 2.36564V105.509C175.885 106.059 175.667 106.586 175.279 106.975C174.891 107.364 174.364 107.583 173.814 107.584H100.44C99.8903 107.583 99.3632 107.364 98.9743 106.975C98.5854 106.586 98.3665 106.059 98.3655 105.509V2.36564C98.3665 1.81568 98.5854 1.28853 98.9743 0.899648C99.3632 0.510765 99.8903 0.291849 100.44 0.290844H173.814Z" fill="#EBEBEB"/>
<path id="Vector_3" d="M18.2413 107.679H91.6193C92.1944 107.678 92.7457 107.449 93.1524 107.042C93.5591 106.636 93.7881 106.084 93.7891 105.509V2.36564C93.7831 1.79379 93.5519 1.24733 93.1458 0.844729C92.7396 0.442125 92.1912 0.215812 91.6193 0.214844H18.2413C17.6704 0.216821 17.1233 0.443698 16.7186 0.8463C16.3138 1.2489 16.0841 1.79479 16.0791 2.36564V105.509C16.0791 106.083 16.3066 106.634 16.7119 107.041C17.1172 107.447 17.6671 107.677 18.2413 107.679ZM91.6193 0.290844C92.1692 0.291849 92.6964 0.510765 93.0853 0.899648C93.4741 1.28853 93.6931 1.81568 93.6941 2.36564V105.509C93.6931 106.059 93.4741 106.586 93.0853 106.975C92.6964 107.364 92.1692 107.583 91.6193 107.584H18.2413C17.6913 107.583 17.1642 107.364 16.7753 106.975C16.3864 106.586 16.1675 106.059 16.1665 105.509V2.36564C16.1675 1.81568 16.3864 1.28853 16.7753 0.899648C17.1642 0.510765 17.6913 0.291849 18.2413 0.290844H91.6193Z" fill="#EBEBEB"/>
<path id="Vector_4" d="M161.132 128.246H171.012V128.341H161.132V128.246Z" fill="#EBEBEB"/>
<path id="Vector_5" d="M118.232 127.215H135.344V127.31H118.232V127.215Z" fill="#EBEBEB"/>
<path id="Vector_6" d="M137.654 131.773H160.754V131.868H137.654V131.773Z" fill="#EBEBEB"/>
<path id="Vector_7" d="M19.9856 131.137H27.293V131.232H19.9856V131.137Z" fill="#EBEBEB"/>
<path id="Vector_8" d="M30.6812 131.137H51.6914V131.232H30.6812V131.137Z" fill="#EBEBEB"/>
<path id="Vector_9" d="M64.5217 129.531H92.8203V129.626H64.5217V129.531Z" fill="#EBEBEB"/>
<path id="Vector_10" d="M75.2119 27.1953H48.1787V124.627H94.8047V39.6707L75.2119 27.1953Z" fill="#E0E0E0"/>
<path id="Vector_11" d="M67.7753 124.629H28.5859L28.5859 39.6761H67.7753V124.629Z" fill="#EBEBEB"/>
<path id="Vector_12" d="M67.7753 40.3594L28.5859 40.3594V39.6716L67.7753 39.6716V40.3594Z" fill="#E0E0E0"/>
<path id="Vector_13" d="M48.1806 27.1953L28.5878 39.6707H67.7734L48.1806 27.1953Z" fill="#EBEBEB"/>
<path id="Vector_14" d="M91.9469 49.9297H74.8621V124.626H127.488V57.9439L91.9469 49.9297Z" fill="#E0E0E0"/>
<path id="Vector_15" d="M74.8608 49.9297V86.7289V124.626H110.398V57.9439L74.8608 49.9297Z" fill="#EBEBEB"/>
<path id="Vector_16" d="M50.5214 101.668H45.8398V92.8216H50.5214V101.668Z" fill="#E0E0E0"/>
<path id="Vector_17" d="M60.8574 101.668H56.1758V92.8216H60.8574V101.668Z" fill="#E0E0E0"/>
<path id="Vector_18" d="M50.5214 115.781H45.8398V106.935H50.5214V115.781Z" fill="#E0E0E0"/>
<path id="Vector_19" d="M40.1816 101.668H35.5V92.8216H40.1816V101.668Z" fill="#E0E0E0"/>
<path id="Vector_20" d="M40.1816 115.781H35.5V106.935H40.1816V115.781Z" fill="#E0E0E0"/>
<path id="Vector_21" d="M60.8574 115.781H56.1758V106.935H60.8574V115.781Z" fill="#E0E0E0"/>
<path id="Vector_22" d="M50.5214 87.5625H45.8398V78.7161H50.5214V87.5625Z" fill="#E0E0E0"/>
<path id="Vector_23" d="M60.8574 87.5625H56.1758V78.7161H60.8574V87.5625Z" fill="#E0E0E0"/>
<path id="Vector_24" d="M40.1816 87.5625H35.5V78.7161H40.1816V87.5625Z" fill="#E0E0E0"/>
<path id="Vector_25" d="M50.5214 73.3477H45.8398V64.5013H50.5214V73.3477Z" fill="#E0E0E0"/>
<path id="Vector_26" d="M60.8574 73.3477H56.1758V64.5013H60.8574V73.3477Z" fill="#E0E0E0"/>
<path id="Vector_27" d="M40.1816 73.3477H35.5V64.5013H40.1816V73.3477Z" fill="#E0E0E0"/>
<path id="Vector_28" d="M50.5214 59.2344H45.8398V50.388H50.5214V59.2344Z" fill="#E0E0E0"/>
<path id="Vector_29" d="M60.8574 59.2344H56.1758V50.388H60.8574V59.2344Z" fill="#E0E0E0"/>
<path id="Vector_30" d="M40.1816 59.2344H35.5V50.388H40.1816V59.2344Z" fill="#E0E0E0"/>
<path id="Vector_31" d="M82.7842 101.674C82.4768 101.674 82.1724 101.614 81.8884 101.496C81.6044 101.378 81.3464 101.206 81.129 100.988C80.9116 100.771 80.7392 100.513 80.6216 100.229C80.5039 99.9451 80.4434 99.6407 80.4434 99.3333V95.1533C80.4434 94.8459 80.5039 94.5415 80.6216 94.2575C80.7392 93.9735 80.9116 93.7155 81.129 93.4981C81.3464 93.2807 81.6044 93.1083 81.8884 92.9907C82.1724 92.873 82.4768 92.8125 82.7842 92.8125C83.405 92.8125 84.0004 93.0591 84.4394 93.4981C84.8784 93.9371 85.125 94.5325 85.125 95.1533V99.3333C85.125 99.9541 84.8784 100.55 84.4394 100.988C84.0004 101.427 83.405 101.674 82.7842 101.674Z" fill="#E0E0E0"/>
<path id="Vector_32" d="M82.7842 115.784C82.4768 115.784 82.1724 115.723 81.8884 115.606C81.6044 115.488 81.3464 115.316 81.129 115.098C80.9116 114.881 80.7392 114.623 80.6216 114.339C80.5039 114.055 80.4434 113.75 80.4434 113.443V109.274C80.4434 108.967 80.5039 108.663 80.6216 108.379C80.7392 108.095 80.9116 107.837 81.129 107.619C81.3464 107.402 81.6044 107.229 81.8884 107.112C82.1724 106.994 82.4768 106.934 82.7842 106.934C83.405 106.934 84.0004 107.18 84.4394 107.619C84.8784 108.058 85.125 108.654 85.125 109.274V113.454C85.122 114.073 84.874 114.666 84.4354 115.102C83.9967 115.539 83.403 115.784 82.7842 115.784Z" fill="#E0E0E0"/>
<path id="Vector_33" d="M93.7285 99.3272C93.7285 100.62 92.6805 101.668 91.3877 101.668C90.0949 101.668 89.0469 100.62 89.0469 99.3272V95.1624C89.0469 93.8696 90.0949 92.8216 91.3877 92.8216C92.6805 92.8216 93.7285 93.8696 93.7285 95.1624V99.3272Z" fill="#E0E0E0"/>
<path id="Vector_34" d="M93.7285 113.44C93.7285 114.733 92.6805 115.781 91.3877 115.781C90.0949 115.781 89.0469 114.733 89.0469 113.44V109.276C89.0469 107.983 90.0949 106.935 91.3877 106.935C92.6805 106.935 93.7285 107.983 93.7285 109.276V113.44Z" fill="#E0E0E0"/>
<path id="Vector_35" d="M99.9873 101.674C99.3665 101.674 98.7711 101.427 98.3321 100.988C97.8931 100.55 97.6465 99.9541 97.6465 99.3333V95.1533C97.6465 94.5325 97.8931 93.9371 98.3321 93.4981C98.7711 93.0591 99.3665 92.8125 99.9873 92.8125C100.608 92.8125 101.204 93.0591 101.643 93.4981C102.082 93.9371 102.328 94.5325 102.328 95.1533V99.3333C102.328 99.9541 102.082 100.55 101.643 100.988C101.204 101.427 100.608 101.674 99.9873 101.674Z" fill="#E0E0E0"/>
<path id="Vector_36" d="M99.9837 115.784C99.6763 115.784 99.372 115.723 99.088 115.606C98.804 115.488 98.5459 115.316 98.3285 115.098C98.1112 114.881 97.9388 114.623 97.8211 114.339C97.7035 114.055 97.6429 113.75 97.6429 113.443V109.274C97.6429 108.654 97.8896 108.058 98.3285 107.619C98.7675 107.18 99.3629 106.934 99.9837 106.934C100.292 106.932 100.598 106.992 100.883 107.109C101.168 107.225 101.428 107.398 101.646 107.615C101.865 107.833 102.038 108.091 102.157 108.376C102.275 108.661 102.336 108.966 102.336 109.274V113.454C102.334 113.762 102.272 114.066 102.153 114.349C102.034 114.633 101.861 114.89 101.642 115.106C101.424 115.323 101.165 115.494 100.88 115.61C100.596 115.726 100.291 115.785 99.9837 115.784Z" fill="#E0E0E0"/>
<path id="Vector_37" d="M82.7842 73.553C82.4768 73.553 82.1724 73.4925 81.8884 73.3748C81.6044 73.2572 81.3464 73.0848 81.129 72.8674C80.9116 72.65 80.7392 72.392 80.6216 72.108C80.5039 71.824 80.4434 71.5196 80.4434 71.2122V67.0322C80.4434 66.7248 80.5039 66.4204 80.6216 66.1364C80.7392 65.8524 80.9116 65.5944 81.129 65.377C81.3464 65.1597 81.6044 64.9872 81.8884 64.8696C82.1724 64.752 82.4768 64.6914 82.7842 64.6914C83.405 64.6914 84.0004 64.938 84.4394 65.377C84.8784 65.816 85.125 66.4114 85.125 67.0322V71.2122C85.125 71.833 84.8784 72.4284 84.4394 72.8674C84.0004 73.3064 83.405 73.553 82.7842 73.553Z" fill="#E0E0E0"/>
<path id="Vector_38" d="M82.7842 87.6628C82.4768 87.6628 82.1724 87.6023 81.8884 87.4846C81.6044 87.367 81.3464 87.1946 81.129 86.9772C80.9116 86.7598 80.7392 86.5018 80.6216 86.2178C80.5039 85.9338 80.4434 85.6294 80.4434 85.322V81.1572C80.4434 80.8498 80.5039 80.5454 80.6216 80.2614C80.7392 79.9774 80.9116 79.7194 81.129 79.502C81.3464 79.2847 81.6044 79.1122 81.8884 78.9946C82.1724 78.877 82.4768 78.8164 82.7842 78.8164C83.405 78.8164 84.0004 79.063 84.4394 79.502C84.8784 79.941 85.125 80.5364 85.125 81.1572V85.3372C85.121 85.9554 84.8726 86.5469 84.434 86.9826C83.9955 87.4183 83.4024 87.6628 82.7842 87.6628Z" fill="#E0E0E0"/>
<path id="Vector_39" d="M93.7285 71.2061C93.7285 72.4989 92.6805 73.5469 91.3877 73.5469C90.0949 73.5469 89.0469 72.4989 89.0469 71.2061V67.0413C89.0469 65.7485 90.0949 64.7005 91.3877 64.7005C92.6805 64.7005 93.7285 65.7485 93.7285 67.0413V71.2061Z" fill="#E0E0E0"/>
<path id="Vector_40" d="M93.7285 85.3194C93.7285 86.6121 92.6805 87.6602 91.3877 87.6602C90.0949 87.6602 89.0469 86.6121 89.0469 85.3194V81.1546C89.0469 79.8618 90.0949 78.8138 91.3877 78.8138C92.6805 78.8138 93.7285 79.8618 93.7285 81.1546V85.3194Z" fill="#E0E0E0"/>
<path id="Vector_41" d="M99.9873 73.553C99.3665 73.553 98.7711 73.3064 98.3321 72.8674C97.8931 72.4284 97.6465 71.833 97.6465 71.2122V67.0322C97.6465 66.4114 97.8931 65.816 98.3321 65.377C98.7711 64.938 99.3665 64.6914 99.9873 64.6914C100.608 64.6914 101.204 64.938 101.643 65.377C102.082 65.816 102.328 66.4114 102.328 67.0322V71.2122C102.328 71.833 102.082 72.4284 101.643 72.8674C101.204 73.3064 100.608 73.553 99.9873 73.553Z" fill="#E0E0E0"/>
<path id="Vector_42" d="M99.9837 87.6628C99.3629 87.6628 98.7675 87.4162 98.3285 86.9772C97.8896 86.5382 97.6429 85.9429 97.6429 85.322V81.1572C97.6429 80.8498 97.7035 80.5454 97.8211 80.2614C97.9388 79.9775 98.1112 79.7194 98.3285 79.502C98.5459 79.2847 98.804 79.1123 99.088 78.9946C99.372 78.877 99.6763 78.8164 99.9837 78.8164C100.292 78.8149 100.598 78.8744 100.883 78.9913C101.168 79.1083 101.428 79.2805 101.646 79.498C101.865 79.7155 102.038 79.9741 102.157 80.2588C102.275 80.5436 102.336 80.8489 102.336 81.1572V85.3372C102.332 85.9574 102.082 86.5506 101.641 86.9866C101.2 87.4227 100.604 87.6659 99.9837 87.6628Z" fill="#E0E0E0"/>
<path id="Vector_43" d="M166.906 13.8239V124.624H115.321V6.54688L166.906 13.8239Z" fill="#E0E0E0"/>
<path id="Vector_44" d="M157.253 124.629H115.32L115.32 17.7691H157.253V124.629Z" fill="#EBEBEB"/>
<path id="Vector_45" d="M126.923 34.8945H123.617V25.5883H126.923V34.8945Z" fill="#E0E0E0"/>
<path id="Vector_46" d="M134.193 34.8945H130.887V25.5883H134.193V34.8945Z" fill="#E0E0E0"/>
<path id="Vector_47" d="M126.923 50.3906H123.617V41.0844H126.923V50.3906Z" fill="#E0E0E0"/>
<path id="Vector_48" d="M134.193 50.3906H130.887V41.0844H134.193V50.3906Z" fill="#E0E0E0"/>
<path id="Vector_49" d="M141.689 34.8945H138.383V25.5883H141.689V34.8945Z" fill="#E0E0E0"/>
<path id="Vector_50" d="M148.954 34.8945H145.648V25.5883H148.954V34.8945Z" fill="#E0E0E0"/>
<path id="Vector_51" d="M141.689 50.3906H138.383V41.0844H141.689V50.3906Z" fill="#E0E0E0"/>
<path id="Vector_52" d="M148.954 50.3906H145.648V41.0844H148.954V50.3906Z" fill="#E0E0E0"/>
<path id="Vector_53" d="M126.923 65.8828H123.617V56.5766H126.923V65.8828Z" fill="#E0E0E0"/>
<path id="Vector_54" d="M134.193 65.8828H130.887V56.5766H134.193V65.8828Z" fill="#E0E0E0"/>
<path id="Vector_55" d="M126.923 81.3789H123.617V72.0727H126.923V81.3789Z" fill="#E0E0E0"/>
<path id="Vector_56" d="M134.193 81.3789H130.887V72.0727H134.193V81.3789Z" fill="#E0E0E0"/>
<path id="Vector_57" d="M141.689 65.8828H138.383V56.5766H141.689V65.8828Z" fill="#E0E0E0"/>
<path id="Vector_58" d="M148.954 65.8828H145.648V56.5766H148.954V65.8828Z" fill="#E0E0E0"/>
<path id="Vector_59" d="M141.689 81.3789H138.383V72.0727H141.689V81.3789Z" fill="#E0E0E0"/>
<path id="Vector_60" d="M148.954 81.3789H145.648V72.0727H148.954V81.3789Z" fill="#E0E0E0"/>
<path id="Vector_61" d="M126.923 96.875H123.617V87.5688H126.923V96.875Z" fill="#E0E0E0"/>
<path id="Vector_62" d="M134.193 96.875H130.887V87.5688H134.193V96.875Z" fill="#E0E0E0"/>
<path id="Vector_63" d="M126.923 112.371H123.617V103.065H126.923V112.371Z" fill="#E0E0E0"/>
<path id="Vector_64" d="M134.193 112.371H130.887V103.065H134.193V112.371Z" fill="#E0E0E0"/>
<path id="Vector_65" d="M141.689 96.875H138.383V87.5688H141.689V96.875Z" fill="#E0E0E0"/>
<path id="Vector_66" d="M148.954 96.875H145.648V87.5688H148.954V96.875Z" fill="#E0E0E0"/>
<path id="Vector_67" d="M141.689 112.371H138.383V103.065H141.689V112.371Z" fill="#E0E0E0"/>
<path id="Vector_68" d="M148.954 112.371H145.648V103.065H148.954V112.371Z" fill="#E0E0E0"/>
</g>
<g id="Shadow">
<path id="path" d="M95.4976 141.783C54.8062 141.783 21.8194 139.857 21.8194 137.481C21.8194 135.106 54.8062 133.18 95.4976 133.18C136.189 133.18 169.176 135.106 169.176 137.481C169.176 139.857 136.189 141.783 95.4976 141.783Z" fill="#F5F5F5"/>
</g>
<g id="Character">
<path id="Vector_69" d="M89.156 132.045L86.477 131.175L88.1414 124.855L90.8242 125.726L89.156 132.045Z" fill="#B55B52"/>
<path id="Vector_70" d="M86.4373 130.815L89.4469 131.792C89.4977 131.807 89.5407 131.841 89.5669 131.887C89.5931 131.933 89.6005 131.987 89.5875 132.039L88.9605 134.471C88.9187 134.596 88.8298 134.699 88.7127 134.76C88.5955 134.82 88.4595 134.832 88.3335 134.794C87.2923 134.436 86.8135 134.212 85.4873 133.783C84.6741 133.517 81.1819 132.479 80.0571 132.115C78.9323 131.75 79.3275 130.648 79.8367 130.701C82.1167 130.944 84.9705 131.18 85.9167 130.83C86.0838 130.768 86.2669 130.762 86.4373 130.815Z" fill="#263238"/>
<path id="Vector_71" opacity="0.2" d="M90.8242 125.726L88.1414 124.855L87.2864 128.116L89.9654 128.986L90.8242 125.726Z" fill="black"/>
<path id="Vector_72" d="M97.3519 61.7695C97.3519 61.7695 93.5519 84.7025 92.4119 92.7015C91.1769 101.461 86.3319 127.08 86.3319 127.08L91.3175 128.441C91.3175 128.441 98.4197 103.615 100.437 95.0993C102.611 85.8539 107.422 61.7695 107.422 61.7695H97.3519Z" fill="#263238"/>
<path id="Vector_73" opacity="0.3" d="M103.457 71.1605C101.512 76.0207 101.291 84.2819 102.082 87.6677C103.275 82.1083 104.643 75.4583 105.695 70.2865C105.319 68.9603 104.639 68.2041 103.457 71.1605Z" fill="black"/>
<path id="Vector_74" d="M91.4317 128.543L86.1041 127.076L86.2067 124.906L92.2031 126.977L91.4317 128.543Z" fill="#046C4E"/>
<path id="Vector_75" d="M85.3376 130.974C85.5853 131.047 85.8401 131.093 86.0976 131.111C86.1104 131.111 86.123 131.108 86.1343 131.102C86.1456 131.096 86.1552 131.088 86.1622 131.077C86.1685 131.066 86.1719 131.053 86.1719 131.041C86.1719 131.028 86.1685 131.016 86.1622 131.005C86.0976 130.917 85.5048 130.153 85.1362 130.176C85.0944 130.179 85.0538 130.192 85.0185 130.214C84.9832 130.237 84.9544 130.268 84.9348 130.305C84.8944 130.359 84.8701 130.424 84.8647 130.491C84.8593 130.558 84.8731 130.626 84.9044 130.685C85.0103 130.83 85.1637 130.932 85.3376 130.974ZM85.938 130.974C85.4288 130.913 85.083 130.784 84.9956 130.621C84.9786 130.582 84.9725 130.539 84.9778 130.497C84.9832 130.455 84.9998 130.415 85.026 130.381C85.0347 130.363 85.0481 130.348 85.0648 130.336C85.0815 130.325 85.1009 130.318 85.121 130.317C85.3224 130.294 85.6948 130.666 85.938 130.963V130.974Z" fill="#046C4E"/>
<path id="Vector_76" d="M86.0636 131.109H86.094C86.1054 131.108 86.116 131.103 86.1247 131.095C86.1335 131.088 86.14 131.078 86.1434 131.067C86.1434 131.037 86.4664 130.285 86.284 129.927C86.2596 129.883 86.2253 129.844 86.1839 129.815C86.1424 129.785 86.0948 129.765 86.0446 129.756C85.9912 129.74 85.934 129.743 85.8823 129.764C85.8305 129.784 85.7873 129.822 85.7596 129.87C85.6 130.144 85.8204 130.832 86.0332 131.079L86.0636 131.109ZM86.0636 129.905C86.0891 129.912 86.1127 129.925 86.133 129.942C86.1533 129.959 86.1697 129.98 86.1814 130.003C86.2447 130.309 86.2101 130.627 86.0826 130.912C85.8953 130.629 85.8258 130.284 85.8888 129.95C85.9078 129.916 85.942 129.878 86.037 129.897L86.0636 129.905Z" fill="#046C4E"/>
<path id="Vector_77" d="M96.2401 38.8633C96.1869 39.0305 96.1033 39.2851 96.0273 39.4979L95.7841 40.1781C95.6143 40.629 95.4319 41.0774 95.2369 41.5233C94.86 42.4023 94.4351 43.2598 93.9639 44.0921C93.0291 45.7299 91.8929 47.2081 90.5439 48.1543L90.3083 48.3177C90.3083 48.3177 90.3083 48.3405 90.2513 48.3481C89.994 48.3453 89.7417 48.2774 89.5179 48.1505C88.7419 47.7334 88.0261 47.2132 87.3899 46.6039C86.659 45.9341 85.9639 45.2263 85.3075 44.4835C84.6273 43.7235 83.9623 42.9407 83.3353 42.1693L81.5265 43.2637C82.4688 45.2639 83.6545 47.1401 85.0567 48.8497C85.8249 49.8016 86.7364 50.6285 87.7585 51.3007C88.4271 51.7328 89.1841 52.0094 89.9739 52.1101C90.4771 52.1614 90.9855 52.1149 91.4711 51.9733C91.7213 51.8995 91.9632 51.8002 92.1931 51.6769L92.6301 51.4299C93.6951 50.7919 94.6583 49.9977 95.4877 49.0739C96.2809 48.2068 96.9884 47.2651 97.6005 46.2619C98.1971 45.2923 98.7265 44.2829 99.1851 43.2409C99.4093 42.7203 99.6183 42.1997 99.8159 41.6677C99.9109 41.4017 100.01 41.1357 100.097 40.8659C100.184 40.5961 100.26 40.3377 100.355 39.9995L96.2401 38.8633Z" fill="#B65B52"/>
<path id="Vector_78" d="M91.7904 45.4529L96.2554 48.7741C96.2554 48.7741 96.4264 48.5879 96.7076 48.2611C96.9128 48.0217 97.1788 47.7025 97.4866 47.3301C99.2156 45.2249 101.746 41.3755 101.765 39.4945C101.796 36.6863 98.8812 36.2721 95.6094 39.1449C94.1958 40.3837 93.4586 42.4395 92.7404 43.7049C92.5048 44.1229 92.3034 44.4915 92.1514 44.7765C91.9158 45.2021 91.7904 45.4529 91.7904 45.4529Z" fill="#046C4E"/>
<path id="Vector_79" d="M110.25 133.275H107.43L107.066 126.75H109.885L110.25 133.275Z" fill="#B55B52"/>
<path id="Vector_80" d="M107.278 132.946H110.44C110.466 132.944 110.493 132.948 110.518 132.957C110.543 132.966 110.566 132.98 110.586 132.998C110.605 133.016 110.621 133.038 110.632 133.062C110.643 133.087 110.648 133.113 110.649 133.139L110.805 135.644C110.805 135.775 110.753 135.902 110.66 135.996C110.568 136.09 110.442 136.143 110.311 136.145C109.209 136.126 108.684 136.062 107.29 136.062C106.435 136.062 102.794 136.149 101.612 136.149C100.431 136.149 100.472 134.979 100.963 134.872C103.212 134.401 105.998 133.732 106.792 133.12C106.93 133.009 107.101 132.947 107.278 132.946Z" fill="#263238"/>
<path id="Vector_81" opacity="0.2" d="M109.884 126.754H107.065L107.255 130.117H110.074L109.884 126.754Z" fill="black"/>
<path id="Vector_82" d="M102.854 61.6132C102.854 61.6132 102.588 83.144 103.044 91.2076C103.546 100.043 106.05 129.303 106.05 129.303H111.21C111.21 129.303 111.054 100.753 111.366 92.0094C111.704 82.5094 112.578 61.6094 112.578 61.6094L102.854 61.6132Z" fill="#263238"/>
<path id="Vector_83" d="M111.418 129.305H105.839L105.531 127.348L111.684 127.652L111.418 129.305Z" fill="#046C4E"/>
<path id="Vector_84" d="M106.29 133.436C106.546 133.43 106.801 133.397 107.05 133.338C107.063 133.335 107.074 133.328 107.083 133.319C107.092 133.309 107.098 133.297 107.1 133.284C107.103 133.272 107.102 133.259 107.097 133.248C107.092 133.236 107.084 133.226 107.073 133.22C106.986 133.155 106.188 132.612 105.842 132.749C105.803 132.763 105.769 132.788 105.742 132.82C105.715 132.852 105.697 132.89 105.69 132.931C105.67 132.992 105.667 133.058 105.682 133.121C105.696 133.184 105.728 133.242 105.773 133.288C105.922 133.399 106.106 133.452 106.29 133.436ZM106.86 133.243C106.355 133.341 105.986 133.326 105.853 133.197C105.826 133.165 105.807 133.126 105.799 133.085C105.791 133.044 105.794 133.001 105.808 132.961C105.81 132.941 105.818 132.922 105.831 132.906C105.844 132.89 105.861 132.877 105.88 132.87C106.066 132.798 106.518 133.034 106.86 133.243Z" fill="#046C4E"/>
<path id="Vector_85" d="M107.023 133.335C107.033 133.339 107.044 133.339 107.053 133.335C107.064 133.33 107.073 133.323 107.08 133.313C107.086 133.304 107.09 133.293 107.091 133.282C107.091 133.247 107.156 132.438 106.871 132.164C106.834 132.129 106.791 132.103 106.743 132.087C106.695 132.071 106.644 132.067 106.594 132.073C106.538 132.076 106.484 132.096 106.441 132.132C106.398 132.168 106.367 132.216 106.354 132.271C106.29 132.579 106.711 133.168 106.993 133.335H107.023ZM106.643 132.195C106.669 132.194 106.695 132.199 106.719 132.209C106.743 132.219 106.765 132.233 106.784 132.252C106.94 132.522 107.005 132.835 106.97 133.145C106.723 132.94 106.445 132.491 106.487 132.29C106.487 132.252 106.518 132.206 106.613 132.195H106.643Z" fill="#046C4E"/>
<path id="Vector_86" opacity="0.3" d="M101.785 39.8151C100.778 39.1501 100.045 40.8715 98.0573 42.3269C97.1719 42.9729 95.2301 47.2023 95.3973 48.1333L96.2561 48.7717C96.2561 48.7717 101.808 42.6157 101.785 39.8151Z" fill="black"/>
<path id="Vector_87" d="M83.668 42.6478L82.699 39.5508L80.1834 41.3938C80.1834 41.3938 81.5552 44.1564 82.4862 43.9056L83.668 42.6478Z" fill="#B55B52"/>
<path id="Vector_88" d="M80.0468 38.3633L78.6332 39.3057L80.1836 41.3919L82.6992 39.5489L80.0468 38.3633Z" fill="#B55B52"/>
<path id="Vector_89" d="M76.7843 38.0297C79.1856 39.0145 81.7276 39.6134 84.3159 39.8043C84.5001 39.8264 84.6868 39.8106 84.8646 39.7579C85.0424 39.7051 85.2076 39.6166 85.3499 39.4978C85.4923 39.3789 85.6088 39.2322 85.6924 39.0666C85.776 38.9011 85.8248 38.7202 85.8359 38.5351C85.8281 38.1794 85.6871 37.8395 85.4409 37.5827C85.1946 37.3259 84.861 37.1708 84.5059 37.1481C82.1987 36.974 79.9337 36.4354 77.7951 35.5521C77.4676 35.4144 77.1003 35.4048 76.766 35.5252C76.4317 35.6455 76.1548 35.887 75.9901 36.2019C75.9141 36.3731 75.8744 36.5582 75.8736 36.7456C75.8729 36.9329 75.911 37.1184 75.9857 37.2902C76.0603 37.4621 76.1699 37.6165 76.3074 37.7438C76.4449 37.8711 76.6073 37.9684 76.7843 38.0297Z" fill="#046C4E"/>
<path id="Vector_90" opacity="0.4" d="M76.7843 38.0297C79.1856 39.0145 81.7276 39.6134 84.3159 39.8043C84.5001 39.8264 84.6868 39.8106 84.8646 39.7579C85.0424 39.7051 85.2076 39.6166 85.3499 39.4978C85.4923 39.3789 85.6088 39.2322 85.6924 39.0666C85.776 38.9011 85.8248 38.7202 85.8359 38.5351C85.8281 38.1794 85.6871 37.8395 85.4409 37.5827C85.1946 37.3259 84.861 37.1708 84.5059 37.1481C82.1987 36.974 79.9337 36.4354 77.7951 35.5521C77.4676 35.4144 77.1003 35.4048 76.766 35.5252C76.4317 35.6455 76.1548 35.887 75.9901 36.2019C75.9141 36.3731 75.8744 36.5582 75.8736 36.7456C75.8729 36.9329 75.911 37.1184 75.9857 37.2902C76.0603 37.4621 76.1699 37.6165 76.3074 37.7438C76.4449 37.8711 76.6073 37.9684 76.7843 38.0297Z" fill="white"/>
<path id="Vector_91" d="M76.3615 38.594C78.9383 39.6508 81.6664 40.2921 84.4441 40.494C84.642 40.5193 84.843 40.5036 85.0346 40.4479C85.2261 40.3921 85.4041 40.2974 85.5575 40.1697C85.7108 40.0421 85.8362 39.8842 85.9258 39.7059C86.0153 39.5276 86.0672 39.3328 86.0781 39.1336C86.0712 38.7517 85.9208 38.3863 85.6567 38.1103C85.3927 37.8343 85.0344 37.6678 84.6531 37.644C82.1717 37.4664 79.7344 36.8943 77.4331 35.9492C77.0813 35.7997 76.6861 35.7882 76.3262 35.9171C75.9664 36.046 75.6683 36.3057 75.4913 36.6446C75.4126 36.8289 75.3729 37.0275 75.3745 37.2279C75.3762 37.4283 75.4192 37.6262 75.5009 37.8092C75.5826 37.9923 75.7012 38.1564 75.8493 38.2915C75.9974 38.4265 76.1718 38.5295 76.3615 38.594Z" fill="#046C4E"/>
<path id="Vector_92" d="M76.5421 39.0613C78.9434 40.0462 81.4854 40.6451 84.0737 40.8359C84.2579 40.858 84.4446 40.8422 84.6224 40.7895C84.8002 40.7368 84.9654 40.6483 85.1077 40.5295C85.2501 40.4106 85.3666 40.2639 85.4502 40.0983C85.5338 39.9328 85.5826 39.7519 85.5938 39.5667C85.5859 39.211 85.4449 38.8712 85.1987 38.6144C84.9524 38.3576 84.6188 38.2025 84.2637 38.1797C81.956 38.0114 79.6896 37.4778 77.5491 36.5989C77.2216 36.4613 76.8543 36.4517 76.52 36.5721C76.1857 36.6924 75.9088 36.9339 75.7441 37.2487C75.6707 37.4194 75.6331 37.6034 75.6339 37.7892C75.6347 37.975 75.6737 38.1587 75.7486 38.3287C75.8234 38.4988 75.9325 38.6516 76.0691 38.7777C76.2056 38.9037 76.3666 39.0003 76.5421 39.0613Z" fill="#046C4E"/>
<path id="Vector_93" opacity="0.4" d="M76.5421 39.0613C78.9434 40.0462 81.4854 40.6451 84.0737 40.8359C84.2579 40.858 84.4446 40.8422 84.6224 40.7895C84.8002 40.7368 84.9654 40.6483 85.1077 40.5295C85.2501 40.4106 85.3666 40.2639 85.4502 40.0983C85.5338 39.9328 85.5826 39.7519 85.5938 39.5667C85.5859 39.211 85.4449 38.8712 85.1987 38.6144C84.9524 38.3576 84.6188 38.2025 84.2637 38.1797C81.956 38.0114 79.6896 37.4778 77.5491 36.5989C77.2216 36.4613 76.8543 36.4517 76.52 36.5721C76.1857 36.6924 75.9088 36.9339 75.7441 37.2487C75.6707 37.4194 75.6331 37.6034 75.6339 37.7892C75.6347 37.975 75.6737 38.1587 75.7486 38.3287C75.8234 38.4988 75.9325 38.6516 76.0691 38.7777C76.2056 38.9037 76.3666 39.0003 76.5421 39.0613Z" fill="white"/>
<path id="Vector_94" d="M84.5552 38.6235C84.5708 38.6233 84.5859 38.6179 84.5982 38.6083C84.6106 38.5987 84.6195 38.5854 84.6236 38.5703C84.643 38.4361 84.6089 38.2996 84.5286 38.1903C84.3776 37.93 84.1546 37.7189 83.8864 37.5823C83.7106 37.4808 83.5034 37.4483 83.305 37.4911C83.2644 37.5057 83.2274 37.5289 83.1966 37.5591C83.1658 37.5892 83.1418 37.6257 83.1264 37.6659C83.0466 37.8673 83.1872 38.0041 83.2974 38.1143C83.3433 38.1549 83.3841 38.2008 83.419 38.2511C83.4287 38.2713 83.4338 38.2934 83.4338 38.3157C83.4338 38.3381 83.4287 38.3602 83.419 38.3803C83.3924 38.4297 83.3126 38.4449 83.2784 38.4525C83.2005 38.4617 83.1216 38.4527 83.0478 38.4263C82.974 38.4 82.9072 38.3569 82.8528 38.3005C82.7741 38.2049 82.7171 38.0934 82.6856 37.9737C82.6666 37.9167 82.6438 37.8597 82.621 37.8065C82.5253 37.5785 82.3552 37.3897 82.1384 37.2707C81.9788 37.1795 81.6026 37.0655 81.4772 37.2707C81.4579 37.3059 81.4462 37.3447 81.443 37.3846C81.4397 37.4246 81.4449 37.4647 81.4582 37.5025C81.4875 37.5805 81.5285 37.6535 81.5798 37.7191C81.6482 37.8255 81.7204 37.9357 81.6976 38.0307C81.6916 38.053 81.6801 38.0733 81.6642 38.0899C81.6482 38.1065 81.6283 38.1189 81.6064 38.1257C81.5718 38.1309 81.5366 38.1292 81.5027 38.1207C81.4688 38.1122 81.4369 38.0971 81.4088 38.0763C81.2335 37.9409 81.1014 37.7574 81.0288 37.5481V37.5177C80.9496 37.3178 80.835 37.1337 80.6906 36.9743C80.6421 36.9248 80.5816 36.8887 80.515 36.8694C80.4485 36.8501 80.378 36.8483 80.3106 36.8641C80.132 36.9287 80.113 37.1529 80.151 37.3277C80.151 37.3619 80.17 37.3999 80.1814 37.4341C80.1972 37.4878 80.2099 37.5424 80.2194 37.5975C80.2258 37.6342 80.2244 37.6717 80.2153 37.7078C80.2061 37.7438 80.1894 37.7775 80.1662 37.8065C80.0636 37.9091 79.8242 37.7191 79.752 37.6621C79.5828 37.5103 79.4524 37.32 79.372 37.1073C79.3416 37.0351 79.3188 36.9629 79.296 36.8907C79.2732 36.8185 79.239 36.7235 79.2048 36.6437C79.1463 36.4984 79.0553 36.3684 78.9388 36.2637C78.8888 36.2249 78.8273 36.2038 78.764 36.2038C78.7007 36.2038 78.6392 36.2249 78.5892 36.2637C78.554 36.3013 78.5286 36.3469 78.5153 36.3967C78.5021 36.4464 78.5013 36.4986 78.5132 36.5487L78.5474 36.7159C78.5474 36.7653 78.5702 36.8147 78.5778 36.8641C78.5958 36.9206 78.6018 36.9803 78.5952 37.0392C78.5887 37.0981 78.5698 37.155 78.5398 37.2061C78.516 37.2276 78.4871 37.2427 78.4558 37.25C78.4246 37.2573 78.3921 37.2566 78.3612 37.2479C78.127 37.2246 77.9094 37.1165 77.7494 36.9439C77.5602 36.7434 77.4438 36.4851 77.4188 36.2105C77.4188 36.0509 77.4454 35.8647 77.548 35.8305C77.5567 35.8284 77.5648 35.8244 77.5719 35.819C77.579 35.8135 77.5849 35.8066 77.5892 35.7988C77.5934 35.7909 77.5961 35.7822 77.5968 35.7733C77.5976 35.7644 77.5965 35.7554 77.5936 35.7469C77.5914 35.7382 77.5874 35.73 77.582 35.7227C77.5766 35.7155 77.5698 35.7094 77.5621 35.7048C77.5543 35.7002 77.5457 35.6972 77.5367 35.696C77.5278 35.6947 77.5187 35.6953 77.51 35.6975C77.3276 35.7507 77.263 35.9977 77.2782 36.2181C77.3101 36.5252 77.4439 36.8128 77.6582 37.0351C77.8427 37.2304 78.0904 37.3543 78.3574 37.3847C78.4102 37.3945 78.4645 37.3916 78.516 37.3764C78.5675 37.3612 78.6147 37.3341 78.6538 37.2973C78.6983 37.2297 78.7277 37.1533 78.7402 37.0734C78.7526 36.9934 78.7478 36.9117 78.726 36.8337C78.726 36.7843 78.707 36.7349 78.6956 36.6817L78.6614 36.5221C78.6537 36.4948 78.6527 36.4659 78.6587 36.4381C78.6647 36.4103 78.6773 36.3843 78.6956 36.3625C78.7204 36.3443 78.7503 36.3345 78.7811 36.3345C78.8118 36.3345 78.8418 36.3443 78.8666 36.3625C78.9667 36.454 79.0424 36.5689 79.087 36.6969C79.1212 36.7767 79.1478 36.8565 79.1744 36.9363C79.201 37.0161 79.2238 37.0845 79.2542 37.1605C79.3462 37.3939 79.492 37.6022 79.6798 37.7685C79.9382 37.9851 80.151 38.0307 80.2802 37.9015C80.3191 37.8583 80.3476 37.8066 80.3634 37.7506C80.3792 37.6946 80.3819 37.6358 80.3714 37.5785C80.3637 37.5165 80.3497 37.4553 80.3296 37.3961C80.3296 37.3619 80.3106 37.3315 80.303 37.2973C80.284 37.2061 80.2726 37.0313 80.3752 36.9933C80.4206 36.9849 80.4675 36.9882 80.5113 37.0028C80.5552 37.0175 80.5946 37.0429 80.626 37.0769C80.758 37.2227 80.8624 37.3914 80.9338 37.5747V37.6089C81.0188 37.8438 81.1723 38.0476 81.3746 38.1941C81.4178 38.2257 81.4673 38.2478 81.5197 38.2589C81.5721 38.2701 81.6262 38.27 81.6786 38.2587C81.7255 38.246 81.7682 38.221 81.8023 38.1862C81.8364 38.1515 81.8606 38.1083 81.8724 38.0611C81.8783 37.9856 81.8689 37.9096 81.8448 37.8378C81.8206 37.7659 81.7822 37.6997 81.7318 37.6431C81.6914 37.586 81.657 37.5249 81.6292 37.4607C81.6206 37.4416 81.6161 37.4209 81.6161 37.3999C81.6161 37.379 81.6206 37.3583 81.6292 37.3391C81.69 37.2365 81.975 37.3125 82.1042 37.3847C82.2919 37.4922 82.4398 37.6575 82.526 37.8559L82.583 38.0117C82.6234 38.1501 82.6905 38.2792 82.7806 38.3917C82.8518 38.4634 82.9385 38.5178 83.034 38.5507C83.1295 38.5837 83.2313 38.5943 83.3316 38.5817C83.38 38.5783 83.427 38.5634 83.4686 38.5383C83.5102 38.5132 83.5453 38.4786 83.571 38.4373C83.5904 38.3956 83.5989 38.3497 83.5956 38.3038C83.5922 38.2579 83.5772 38.2136 83.552 38.1751C83.5128 38.1134 83.4655 38.0572 83.4114 38.0079C83.2936 37.8977 83.2252 37.8217 83.2708 37.7115C83.2787 37.6886 83.2917 37.6679 83.3088 37.6507C83.3259 37.6336 83.3467 37.6206 83.3696 37.6127C83.532 37.5867 83.6985 37.6176 83.8408 37.7001C84.0849 37.8252 84.288 38.0178 84.426 38.2549C84.4829 38.3299 84.51 38.4233 84.502 38.5171C84.4997 38.5261 84.4994 38.5355 84.5009 38.5446C84.5023 38.5538 84.5057 38.5625 84.5106 38.5703C84.5156 38.5782 84.5221 38.5849 84.5298 38.5901C84.5374 38.5953 84.5461 38.599 84.5552 38.6007V38.6235Z" fill="#FAFAFA"/>
<path id="Vector_95" d="M97.3525 61.7713H112.42C112.526 60.4261 112.214 56.0485 112.446 50.4739C112.589 46.342 113.09 42.2302 113.943 38.1847C114.012 37.8807 114.08 37.5805 114.152 37.2765C114.152 37.2765 113.392 37.1207 112.294 36.9611C111.386 36.8281 110.246 36.6913 109.129 36.6381C106.996 36.5165 104.858 36.5165 102.726 36.6381C101.742 36.7293 100.78 36.8927 100.013 37.0409C99.0321 37.2385 98.4545 37.4209 98.4545 37.4209C98.4545 37.4209 94.7381 45.9139 97.3525 61.7713Z" fill="#046C4E"/>
<path id="Vector_96" opacity="0.3" d="M112.444 50.4606C112.587 46.3286 113.088 42.2168 113.941 38.1714C112.934 38.084 111.213 38.1714 110.928 39.8092C110.62 41.5534 111.008 45.6688 112.444 50.4606Z" fill="black"/>
<path id="Vector_97" d="M113.086 51.6567C113.086 51.6567 108.625 50.4749 108.963 46.4621C109.301 42.4493 111.642 36.5327 111.642 36.5327C111.642 36.5327 111.213 36.2439 110.229 36.3731C109.894 36.6733 107.759 41.0091 107.466 43.6311C105.805 43.4563 101.663 43.3537 100.934 43.4031C100.789 41.9515 101.519 38.0489 102.416 36.5821C101.918 36.5604 101.419 36.6077 100.934 36.7227C99.8711 39.2634 99.2912 41.9799 99.2239 44.7331C99.1821 49.0803 96.1497 50.9385 96.1497 50.9385C96.1497 50.9385 96.2751 58.5157 96.0433 61.7571C95.8115 64.9985 94.6487 74.5821 94.6487 74.5821L112.706 75.5967C112.706 75.5967 114.067 56.7829 113.086 51.6567Z" fill="#263238"/>
<path id="Vector_98" d="M111.42 41.3536L112.088 42.4936C112.316 42.8888 112.537 43.2878 112.75 43.6906C113.183 44.4962 113.6 45.3068 114 46.1226C114.38 46.9396 114.76 47.7604 115.094 48.5812C115.424 49.3901 115.71 50.2159 115.953 51.055L115.995 51.207L116.018 51.2868C116.03 51.3076 116.038 51.331 116.04 51.3552C116.052 51.4727 116.052 51.5911 116.04 51.7086C116.001 52.0673 115.926 52.4212 115.816 52.765C115.552 53.59 115.23 54.3951 114.851 55.1742C114.091 56.8082 113.171 58.4688 112.248 60.0762L113.924 61.391C115.314 59.9757 116.57 58.4338 117.674 56.7854C118.261 55.9172 118.769 54.9991 119.194 54.0418C119.434 53.4975 119.62 52.9312 119.749 52.3508C119.823 51.9983 119.861 51.6393 119.863 51.2792C119.864 51.0643 119.849 50.8496 119.818 50.637L119.791 50.4774L119.772 50.3786L119.73 50.1848C119.313 48.1778 118.676 46.2229 117.83 44.3556C117.427 43.436 116.99 42.5392 116.527 41.6614C116.291 41.2244 116.052 40.7874 115.801 40.3542C115.55 39.921 115.303 39.5106 115.007 39.0508L111.42 41.3536Z" fill="#B65B52"/>
<path id="Vector_99" d="M110.411 42.3928C110.856 44.3308 112.087 46.5348 112.855 48.1118C113.056 48.5298 113.235 48.9022 113.394 49.2024C113.66 49.7306 113.827 50.0498 113.827 50.0498L119.527 46.8882C119.527 46.8882 119.455 46.6488 119.326 46.246C119.227 45.942 119.098 45.543 118.946 45.0832C117.996 42.3738 116.054 37.5402 114.15 37.2628C111.304 36.8486 109.883 40.0786 110.411 42.3928Z" fill="#046C4E"/>
<path id="Vector_100" d="M113.007 59.4903L110.202 59.0039L111.643 62.2491C111.643 62.2491 114.204 62.2491 114.086 60.9153L113.007 59.4903Z" fill="#B55B52"/>
<path id="Vector_101" d="M108.111 60.6185L109.429 63.2443L111.645 62.2335L110.204 58.9883L108.111 60.6185Z" fill="#B55B52"/>
<path id="Vector_102" d="M103.029 36.6006C104.891 36.1598 105.218 35.0084 105.092 33.743C105.063 33.4261 105.013 33.1113 104.944 32.8006L107.277 30.8626L108.991 29.4414C108.516 31.5048 107.98 35.263 109.371 36.6386C109.371 36.6386 108.113 38.5766 104.754 38.3638C101.395 38.151 103.029 36.6006 103.029 36.6006Z" fill="#B55B52"/>
<path id="Vector_103" opacity="0.2" d="M104.944 32.7974C105.013 33.1081 105.063 33.4228 105.092 33.7398C105.963 33.565 107.125 32.6378 107.247 31.7486C107.29 31.4542 107.3 31.156 107.277 30.8594L104.944 32.7974Z" fill="black"/>
<path id="Vector_104" d="M102.884 22.7989C101.58 23.4069 101.968 26.5153 102.789 26.8003C103.944 27.1917 104.719 21.9363 102.884 22.7989Z" fill="#263238"/>
<path id="Vector_105" d="M109.699 26.4723C109.106 29.2121 108.897 30.8423 107.278 32.0925C106.757 32.5049 106.133 32.7669 105.473 32.8501C104.814 32.9333 104.144 32.8345 103.537 32.5645C102.929 32.2945 102.407 31.8634 102.027 31.3181C101.647 30.7727 101.424 30.1338 101.381 29.4705C101.168 26.9207 102.179 22.8699 105.059 22.0947C105.678 21.9103 106.335 21.8919 106.964 22.0414C107.592 22.1909 108.17 22.503 108.64 22.9464C109.11 23.3898 109.456 23.9489 109.641 24.5677C109.827 25.1866 109.847 25.8434 109.699 26.4723Z" fill="#B55B52"/>
<path id="Vector_106" d="M109.581 28.3489C110.147 27.9005 113.548 26.1107 111.481 23.8725C112.135 22.8997 112.366 21.0453 109.794 20.6653C107.221 20.2853 103.965 21.6761 103.482 20.6653C101.726 20.6653 101.495 23.3253 102.87 23.7889C104.246 24.2525 108.232 24.0625 108.232 24.0625C108.232 24.0625 107.115 30.4807 109.581 28.3489Z" fill="#263238"/>
<path id="Vector_107" d="M102.223 21.8488C105.146 22.2288 109.774 23.7488 112.024 25.2688C112.049 25.2868 112.078 25.298 112.109 25.3013C112.139 25.3046 112.17 25.2999 112.199 25.2877C112.227 25.2754 112.252 25.256 112.27 25.2314C112.289 25.2068 112.301 25.1778 112.305 25.1472L112.757 21.4916C112.76 21.4553 112.753 21.4188 112.736 21.3865C112.719 21.3541 112.694 21.3273 112.662 21.3092C110.036 19.8418 107.155 18.8851 104.173 18.4896C104.138 18.4854 104.103 18.4911 104.072 18.5058C104.04 18.5206 104.013 18.544 103.994 18.5732L102.094 21.5752C102.077 21.6004 102.066 21.6298 102.064 21.6603C102.061 21.6909 102.067 21.7216 102.08 21.7493C102.093 21.777 102.113 21.8008 102.138 21.8183C102.164 21.8357 102.193 21.8463 102.223 21.8488Z" fill="#046C4E"/>
<path id="Vector_108" d="M110.315 29.3344C109.872 29.8683 109.258 30.2333 108.578 30.368C107.715 30.5124 107.518 29.7144 107.959 28.9392C108.339 28.2438 109.281 27.328 110.052 27.5332C110.824 27.7384 110.888 28.658 110.315 29.3344Z" fill="#B55B52"/>
<path id="Vector_109" d="M105.702 26.7495C105.668 26.9737 105.52 27.1295 105.376 27.1295C105.231 27.1295 105.136 26.9167 105.17 26.6925C105.205 26.4683 105.353 26.3125 105.501 26.3125C105.649 26.3125 105.74 26.5253 105.702 26.7495Z" fill="#263238"/>
<path id="Vector_110" d="M103.028 26.433C102.994 26.6572 102.846 26.813 102.697 26.813C102.549 26.813 102.458 26.5964 102.492 26.3722C102.526 26.148 102.675 25.9922 102.823 25.9922C102.971 25.9922 103.062 26.2202 103.028 26.433Z" fill="#263238"/>
<path id="Vector_111" d="M103.477 26.6523C103.101 27.3088 102.64 27.912 102.105 28.4459C102.244 28.5741 102.41 28.6698 102.591 28.7263C102.771 28.7828 102.962 28.7986 103.15 28.7727L103.477 26.6523Z" fill="#A02724"/>
<path id="Vector_112" d="M104.12 29.4884C104.384 29.4916 104.646 29.4415 104.89 29.3409C105.134 29.2403 105.355 29.0915 105.541 28.9032C105.552 28.8901 105.559 28.8732 105.559 28.8557C105.559 28.8383 105.552 28.8214 105.541 28.8082C105.528 28.7959 105.511 28.7891 105.493 28.7891C105.476 28.7891 105.459 28.7959 105.446 28.8082C105.242 29.0092 104.995 29.1609 104.724 29.2518C104.452 29.3427 104.164 29.3703 103.88 29.3326C103.863 29.3326 103.847 29.3395 103.834 29.3516C103.822 29.3637 103.816 29.3801 103.816 29.3972C103.816 29.4144 103.822 29.4308 103.834 29.4429C103.847 29.455 103.863 29.4618 103.88 29.4618C103.959 29.4752 104.039 29.4841 104.12 29.4884Z" fill="#263238"/>
<path id="Vector_113" d="M106.634 25.7026C106.655 25.7079 106.677 25.7079 106.698 25.7026C106.714 25.6939 106.727 25.6823 106.738 25.6684C106.748 25.6545 106.756 25.6387 106.761 25.6217C106.766 25.6047 106.767 25.587 106.764 25.5696C106.762 25.5522 106.756 25.5354 106.748 25.5202C106.65 25.3347 106.508 25.1761 106.334 25.0582C106.16 24.9403 105.961 24.8667 105.752 24.8438C105.716 24.8428 105.682 24.8557 105.656 24.8798C105.629 24.904 105.613 24.9374 105.611 24.973C105.61 25.0077 105.623 25.0413 105.646 25.0669C105.67 25.0924 105.702 25.1078 105.737 25.1098C105.9 25.128 106.056 25.1852 106.192 25.2764C106.329 25.3677 106.441 25.4904 106.52 25.6342C106.531 25.6549 106.547 25.6721 106.567 25.6842C106.587 25.6962 106.61 25.7026 106.634 25.7026Z" fill="#263238"/>
<path id="Vector_114" d="M101.831 25.2071C101.852 25.2129 101.874 25.2136 101.895 25.2089C101.917 25.2043 101.936 25.1945 101.953 25.1805C102.081 25.0672 102.233 24.9851 102.398 24.9409C102.563 24.8967 102.736 24.8916 102.903 24.9259C102.938 24.9353 102.975 24.9305 103.006 24.9128C103.037 24.895 103.06 24.8656 103.07 24.8309C103.079 24.7972 103.074 24.7615 103.057 24.7312C103.04 24.7008 103.012 24.6781 102.979 24.6675C102.769 24.6225 102.552 24.6269 102.344 24.6803C102.136 24.7337 101.944 24.8347 101.782 24.9753C101.758 25.0002 101.744 25.0336 101.744 25.0684C101.744 25.1032 101.758 25.1367 101.782 25.1615C101.794 25.1806 101.811 25.1963 101.831 25.2071Z" fill="#263238"/>
</g>
<g id="hotdog-booth">
<path id="Vector_115" d="M51.0185 15.3393L53.7109 14.3594L89.0543 111.465L86.3619 112.445L51.0185 15.3393Z" fill="#263238"/>
<path id="Vector_116" d="M49.2089 6.17353C49.3164 6.13579 49.4343 6.14077 49.5382 6.18744C49.6422 6.23411 49.7242 6.31891 49.7675 6.42433L53.0469 14.6057L51.6827 15.1035L48.9391 6.72453C48.9047 6.61561 48.9135 6.49763 48.9637 6.39504C49.0139 6.29245 49.1017 6.21313 49.2089 6.17353Z" fill="#263238"/>
<path id="Vector_117" d="M51.7971 13.3454C73.6927 5.36545 95.0107 8.72465 98.0469 17.0618L18.7523 45.919C15.7389 37.5818 29.9205 21.314 51.7971 13.3454Z" fill="#046C4E"/>
<path id="Vector_118" d="M51.7964 13.3486C65.4232 8.40857 80.038 14.177 83.0742 22.5142L33.7236 40.473C30.7102 32.1358 38.1848 18.3076 51.7964 13.3486Z" fill="white"/>
<path id="Vector_119" d="M51.7968 13.3465C57.0978 11.4161 64.9676 19.6583 68 27.9955L48.7986 34.9875C45.7814 26.6503 46.511 15.2769 51.7968 13.3465Z" fill="#046C4E"/>
<path id="Vector_120" d="M128.618 109.488C131.387 109.488 134.093 110.309 136.396 111.848C138.698 113.386 140.492 115.572 141.552 118.13C142.611 120.688 142.888 123.503 142.348 126.219C141.808 128.934 140.475 131.429 138.517 133.386C136.559 135.344 134.065 136.678 131.349 137.218C128.634 137.758 125.819 137.481 123.261 136.421C120.703 135.361 118.516 133.567 116.978 131.265C115.44 128.963 114.619 126.256 114.619 123.487C114.619 119.775 116.094 116.214 118.719 113.589C121.344 110.963 124.905 109.488 128.618 109.488ZM118.464 122.537H126.327L120.771 116.982C119.459 118.559 118.655 120.495 118.464 122.537ZM127.668 113.334C125.621 113.52 123.678 114.323 122.097 115.637L127.653 121.192L127.668 113.334ZM129.568 121.192L135.127 115.637C133.549 114.325 131.611 113.522 129.568 113.334V121.192ZM129.568 133.641C131.611 133.45 133.549 132.646 135.127 131.334L129.568 125.779V133.641ZM127.668 125.779L122.097 131.334C123.675 132.645 125.611 133.449 127.653 133.641L127.668 125.779ZM136.469 116.982L130.913 122.537H138.775C138.585 120.495 137.781 118.559 136.469 116.982ZM138.775 124.437H130.913L136.469 129.993C137.779 128.416 138.583 126.479 138.775 124.437ZM120.771 129.993L126.327 124.437H118.464C118.657 126.479 119.46 128.416 120.771 129.993Z" fill="#046C4E"/>
<path id="Vector_121" opacity="0.2" d="M128.618 109.488C131.387 109.488 134.093 110.309 136.396 111.848C138.698 113.386 140.492 115.572 141.552 118.13C142.611 120.688 142.888 123.503 142.348 126.219C141.808 128.934 140.475 131.429 138.517 133.386C136.559 135.344 134.065 136.678 131.349 137.218C128.634 137.758 125.819 137.481 123.261 136.421C120.703 135.361 118.516 133.567 116.978 131.265C115.44 128.963 114.619 126.256 114.619 123.487C114.619 119.775 116.094 116.214 118.719 113.589C121.344 110.963 124.905 109.488 128.618 109.488ZM118.464 122.537H126.327L120.771 116.982C119.459 118.559 118.655 120.495 118.464 122.537ZM127.668 113.334C125.621 113.52 123.678 114.323 122.097 115.637L127.653 121.192L127.668 113.334ZM129.568 121.192L135.127 115.637C133.549 114.325 131.611 113.522 129.568 113.334V121.192ZM129.568 133.641C131.611 133.45 133.549 132.646 135.127 131.334L129.568 125.779V133.641ZM127.668 125.779L122.097 131.334C123.675 132.645 125.611 133.449 127.653 133.641L127.668 125.779ZM136.469 116.982L130.913 122.537H138.775C138.585 120.495 137.781 118.559 136.469 116.982ZM138.775 124.437H130.913L136.469 129.993C137.779 128.416 138.583 126.479 138.775 124.437ZM120.771 129.993L126.327 124.437H118.464C118.657 126.479 119.46 128.416 120.771 129.993Z" fill="black"/>
<path id="Vector_122" d="M82.8485 109.488C85.6172 109.488 88.3238 110.309 90.626 111.848C92.9281 113.386 94.7225 115.572 95.782 118.13C96.8416 120.688 97.1188 123.503 96.5787 126.219C96.0385 128.934 94.7052 131.429 92.7474 133.386C90.7896 135.344 88.2951 136.678 85.5796 137.218C82.864 137.758 80.0492 137.481 77.4912 136.421C74.9332 135.361 72.7468 133.567 71.2085 131.265C69.6703 128.963 68.8493 126.256 68.8493 123.487C68.8493 119.775 70.3242 116.214 72.9495 113.589C75.5749 110.963 79.1356 109.488 82.8485 109.488ZM72.6949 122.537H80.5571L75.0015 116.982C73.6881 118.558 72.8837 120.495 72.6949 122.537ZM81.8985 113.334C79.8564 113.522 77.9193 114.325 76.3429 115.637L81.8985 121.192V113.334ZM83.7985 121.192L89.354 115.637C87.7776 114.325 85.8405 113.522 83.7985 113.334V121.192ZM83.7985 133.641C85.8404 133.45 87.7769 132.646 89.354 131.334L83.7985 125.779V133.641ZM81.8985 125.779L76.3429 131.334C77.92 132.646 79.8565 133.45 81.8985 133.641V125.779ZM90.6993 116.982L85.1437 122.537H93.0021C92.8145 120.495 92.0115 118.558 90.6993 116.982ZM93.0021 124.437H85.1437L90.6993 129.993C92.0103 128.416 92.8131 126.479 93.0021 124.437ZM75.0015 129.993L80.5571 124.437H72.6949C72.8851 126.48 73.6893 128.417 75.0015 129.993Z" fill="#046C4E"/>
<path id="Vector_123" opacity="0.2" d="M82.8485 109.488C85.6172 109.488 88.3238 110.309 90.626 111.848C92.9281 113.386 94.7225 115.572 95.782 118.13C96.8416 120.688 97.1188 123.503 96.5787 126.219C96.0385 128.934 94.7052 131.429 92.7474 133.386C90.7896 135.344 88.2951 136.678 85.5796 137.218C82.864 137.758 80.0492 137.481 77.4912 136.421C74.9332 135.361 72.7468 133.567 71.2085 131.265C69.6703 128.963 68.8493 126.256 68.8493 123.487C68.8493 119.775 70.3242 116.214 72.9495 113.589C75.5749 110.963 79.1356 109.488 82.8485 109.488ZM72.6949 122.537H80.5571L75.0015 116.982C73.6881 118.558 72.8837 120.495 72.6949 122.537ZM81.8985 113.334C79.8564 113.522 77.9193 114.325 76.3429 115.637L81.8985 121.192V113.334ZM83.7985 121.192L89.354 115.637C87.7776 114.325 85.8405 113.522 83.7985 113.334V121.192ZM83.7985 133.641C85.8404 133.45 87.7769 132.646 89.354 131.334L83.7985 125.779V133.641ZM81.8985 125.779L76.3429 131.334C77.92 132.646 79.8565 133.45 81.8985 133.641V125.779ZM90.6993 116.982L85.1437 122.537H93.0021C92.8145 120.495 92.0115 118.558 90.6993 116.982ZM93.0021 124.437H85.1437L90.6993 129.993C92.0103 128.416 92.8131 126.479 93.0021 124.437ZM75.0015 129.993L80.5571 124.437H72.6949C72.8851 126.48 73.6893 128.417 75.0015 129.993Z" fill="black"/>
<path id="Vector_124" d="M47.1749 77.3984H134.32V126.715H47.1749V77.3984Z" fill="#046C4E"/>
<path id="Vector_125" d="M46.3655 74.0195H134.32V77.3977H46.3655V74.0195Z" fill="#046C4E"/>
<path id="Vector_126" opacity="0.2" d="M47.1753 126.714V77.3977H46.3697V74.0195H58.1155L72.3047 126.714H47.1753Z" fill="black"/>
<path id="Vector_127" d="M148.802 126.715H134.32V77.3984H148.802V126.715Z" fill="#046C4E"/>
<path id="Vector_128" opacity="0.2" d="M148.802 126.715H134.32V77.3984H148.802V126.715Z" fill="black"/>
<path id="Vector_129" d="M149.612 77.3984H134.32V74.0202H149.612V77.3984Z" fill="#046C4E"/>
<path id="Vector_130" opacity="0.2" d="M149.612 77.3984H134.32V74.0202H149.612V77.3984Z" fill="black"/>
<path id="Vector_131" d="M114.118 109.488C116.887 109.488 119.593 110.309 121.896 111.848C124.198 113.386 125.992 115.572 127.052 118.13C128.111 120.688 128.388 123.503 127.848 126.219C127.308 128.934 125.975 131.429 124.017 133.386C122.059 135.344 119.565 136.678 116.849 137.218C114.134 137.758 111.319 137.481 108.761 136.421C106.203 135.361 104.016 133.567 102.478 131.265C100.94 128.963 100.119 126.256 100.119 123.487C100.119 119.775 101.594 116.214 104.219 113.589C106.844 110.963 110.405 109.488 114.118 109.488ZM103.964 122.537H111.838L106.282 116.982C104.973 118.559 104.172 120.496 103.983 122.537H103.964ZM113.168 113.334C111.126 113.523 109.189 114.326 107.612 115.637L113.168 121.192V113.334ZM115.068 121.192L120.624 115.637C119.047 114.324 117.11 113.521 115.068 113.334V121.192ZM115.068 133.641C117.11 133.451 119.047 132.646 120.624 131.334L115.068 125.779V133.641ZM113.168 125.779L107.612 131.334C109.19 132.645 111.126 133.449 113.168 133.641V125.779ZM121.969 116.982L116.413 122.537H124.291C124.103 120.495 123.3 118.558 121.988 116.982H121.969ZM124.272 124.437H116.413L121.969 129.993C123.287 128.419 124.096 126.482 124.291 124.437H124.272ZM106.271 129.993L111.838 124.437H103.976C104.17 126.48 104.977 128.417 106.29 129.993H106.271Z" fill="#046C4E"/>
<path id="Vector_132" opacity="0.2" d="M114.118 109.488C116.887 109.488 119.593 110.309 121.896 111.848C124.198 113.386 125.992 115.572 127.052 118.13C128.111 120.688 128.388 123.503 127.848 126.219C127.308 128.934 125.975 131.429 124.017 133.386C122.059 135.344 119.565 136.678 116.849 137.218C114.134 137.758 111.319 137.481 108.761 136.421C106.203 135.361 104.016 133.567 102.478 131.265C100.94 128.963 100.119 126.256 100.119 123.487C100.119 119.775 101.594 116.214 104.219 113.589C106.844 110.963 110.405 109.488 114.118 109.488ZM103.964 122.537H111.838L106.282 116.982C104.973 118.559 104.172 120.496 103.983 122.537H103.964ZM113.168 113.334C111.126 113.523 109.189 114.326 107.612 115.637L113.168 121.192V113.334ZM115.068 121.192L120.624 115.637C119.047 114.324 117.11 113.521 115.068 113.334V121.192ZM115.068 133.641C117.11 133.451 119.047 132.646 120.624 131.334L115.068 125.779V133.641ZM113.168 125.779L107.612 131.334C109.19 132.645 111.126 133.449 113.168 133.641V125.779ZM121.969 116.982L116.413 122.537H124.291C124.103 120.495 123.3 118.558 121.988 116.982H121.969ZM124.272 124.437H116.413L121.969 129.993C123.287 128.419 124.096 126.482 124.291 124.437H124.272ZM106.271 129.993L111.838 124.437H103.976C104.17 126.48 104.977 128.417 106.29 129.993H106.271Z" fill="white"/>
<path id="Vector_133" d="M68.3719 109.488C71.1407 109.488 73.8473 110.309 76.1494 111.848C78.4516 113.386 80.2459 115.572 81.3055 118.13C82.365 120.688 82.6423 123.503 82.1021 126.219C81.5619 128.934 80.2286 131.429 78.2708 133.386C76.313 135.344 73.8186 136.678 71.103 137.218C68.3874 137.758 65.5726 137.481 63.0146 136.421C60.4566 135.361 58.2702 133.567 56.732 131.265C55.1937 128.963 54.3727 126.256 54.3727 123.487C54.3727 121.649 54.7348 119.829 55.4383 118.13C56.1418 116.432 57.173 114.888 58.473 113.589C59.7729 112.289 61.3162 111.257 63.0146 110.554C64.7131 109.85 66.5335 109.488 68.3719 109.488ZM58.2183 122.537H66.0767L60.5211 116.982C59.2089 118.558 58.4059 120.495 58.2183 122.537ZM67.4219 113.334C65.3798 113.522 63.4428 114.325 61.8663 115.637L67.4219 121.192V113.334ZM69.3219 121.192L74.8775 115.637C73.301 114.325 71.364 113.522 69.3219 113.334V121.192ZM69.3219 133.641C71.3639 133.45 73.3004 132.646 74.8775 131.334L69.3219 125.779V133.641ZM67.4219 125.779L61.8663 131.334C63.4434 132.646 65.3799 133.45 67.4219 133.641V125.779ZM76.2189 116.982L70.6633 122.537H78.5255C78.3366 120.495 77.5323 118.558 76.2189 116.982ZM78.5255 124.437H70.6633L76.2189 129.993C77.5311 128.417 78.3352 126.48 78.5255 124.437ZM60.5211 129.993L66.0767 124.437H58.2183C58.4073 126.479 59.2101 128.416 60.5211 129.993Z" fill="#046C4E"/>
<path id="Vector_134" opacity="0.2" d="M68.3719 109.488C71.1407 109.488 73.8473 110.309 76.1494 111.848C78.4516 113.386 80.2459 115.572 81.3055 118.13C82.365 120.688 82.6423 123.503 82.1021 126.219C81.5619 128.934 80.2286 131.429 78.2708 133.386C76.313 135.344 73.8186 136.678 71.103 137.218C68.3874 137.758 65.5726 137.481 63.0146 136.421C60.4566 135.361 58.2702 133.567 56.732 131.265C55.1937 128.963 54.3727 126.256 54.3727 123.487C54.3727 121.649 54.7348 119.829 55.4383 118.13C56.1418 116.432 57.173 114.888 58.473 113.589C59.7729 112.289 61.3162 111.257 63.0146 110.554C64.7131 109.85 66.5335 109.488 68.3719 109.488ZM58.2183 122.537H66.0767L60.5211 116.982C59.2089 118.558 58.4059 120.495 58.2183 122.537ZM67.4219 113.334C65.3798 113.522 63.4428 114.325 61.8663 115.637L67.4219 121.192V113.334ZM69.3219 121.192L74.8775 115.637C73.301 114.325 71.364 113.522 69.3219 113.334V121.192ZM69.3219 133.641C71.3639 133.45 73.3004 132.646 74.8775 131.334L69.3219 125.779V133.641ZM67.4219 125.779L61.8663 131.334C63.4434 132.646 65.3799 133.45 67.4219 133.641V125.779ZM76.2189 116.982L70.6633 122.537H78.5255C78.3366 120.495 77.5323 118.558 76.2189 116.982ZM78.5255 124.437H70.6633L76.2189 129.993C77.5311 128.417 78.3352 126.48 78.5255 124.437ZM60.5211 129.993L66.0767 124.437H58.2183C58.4073 126.479 59.2101 128.416 60.5211 129.993Z" fill="white"/>
<path id="Vector_135" opacity="0.2" d="M47.1775 77.3984H148.805V78.8348H47.1775V77.3984Z" fill="black"/>
<path id="Vector_136" d="M132.336 60.6759V57.9323H133.077L133.347 53.8359H133.959L134.228 57.9323H134.969V60.6759H136.391V74.0177H130.915V60.6759H132.336Z" fill="#046C4E"/>
<path id="Vector_137" opacity="0.4" d="M132.336 60.6759V57.9323H133.077L133.347 53.8359H133.959L134.228 57.9323H134.969V60.6759H136.391V74.0177H130.915V60.6759H132.336Z" fill="white"/>
<path id="Vector_138" d="M125.371 60.6759V57.9323H126.108L126.378 53.8359H126.994L127.264 57.9323H128.001V60.6759H129.426V74.0177H123.95V60.6759H125.371Z" fill="#046C4E"/>
<path id="Vector_139" opacity="0.2" d="M125.371 60.6759V57.9323H126.108L126.378 53.8359H126.994L127.264 57.9323H128.001V60.6759H129.426V74.0177H123.95V60.6759H125.371Z" fill="black"/>
<path id="Vector_140" d="M72.6767 97.5894C85.0257 100.96 97.8316 102.347 110.616 101.701C114.743 101.496 117.745 98.1556 117.3 94.576C116.855 90.9888 113.553 88.4124 109.955 88.591C98.5584 89.1656 87.143 87.9278 76.1347 84.924C72.6615 83.9816 68.8843 85.7904 67.6797 89.1952C66.4751 92.5962 68.6905 96.5064 72.6767 97.5894Z" fill="#046C4E"/>
<path id="Vector_141" opacity="0.4" d="M72.6767 97.5894C85.0257 100.96 97.8316 102.347 110.616 101.701C114.743 101.496 117.745 98.1556 117.3 94.576C116.855 90.9888 113.553 88.4124 109.955 88.591C98.5584 89.1656 87.143 87.9278 76.1347 84.924C72.6615 83.9816 68.8843 85.7904 67.6797 89.1952C66.4751 92.5962 68.6905 96.5064 72.6767 97.5894Z" fill="white"/>
<path id="Vector_142" d="M70.9406 100.64C84.1962 104.258 97.9424 105.747 111.665 105.052C116.092 104.831 119.318 101.252 118.84 97.406C118.361 93.5566 114.819 90.7902 110.955 90.9802C98.7208 91.5989 86.4663 90.2701 74.6494 87.0434C70.9178 86.0326 66.867 87.9744 65.575 91.63C64.2868 95.2818 66.6656 99.477 70.9406 100.64Z" fill="#046C4E"/>
<path id="Vector_143" d="M72.1103 102.812C84.4606 106.182 97.2677 107.57 110.053 106.924C114.176 106.718 117.178 103.378 116.734 99.7987C116.289 96.2115 112.987 93.6389 109.392 93.8137C97.9957 94.3887 86.5804 93.1509 75.5721 90.1467C72.0951 89.2043 68.3179 91.0131 67.1171 94.4179C65.9087 97.7999 68.1355 101.71 72.1103 102.812Z" fill="#046C4E"/>
<path id="Vector_144" opacity="0.4" d="M72.1103 102.812C84.4606 106.182 97.2677 107.57 110.053 106.924C114.176 106.718 117.178 103.378 116.734 99.7987C116.289 96.2115 112.987 93.6389 109.392 93.8137C97.9957 94.3887 86.5804 93.1509 75.5721 90.1467C72.0951 89.2043 68.3179 91.0131 67.1171 94.4179C65.9087 97.7999 68.1355 101.71 72.1103 102.812Z" fill="white"/>
<path id="Vector_145" d="M104.179 96.5403C104.446 96.5404 104.712 96.5059 104.97 96.4377C105.205 96.393 105.427 96.2933 105.616 96.1467C105.806 96.0001 105.958 95.8107 106.06 95.5941C106.129 95.3784 106.143 95.1491 106.1 94.9268C106.058 94.7045 105.96 94.4963 105.817 94.3211C105.581 94.0478 105.312 93.8052 105.015 93.5991C104.385 93.1165 104.001 92.7935 104.153 92.2235C104.18 92.1083 104.231 92.0003 104.303 91.9065C104.375 91.8128 104.466 91.7356 104.571 91.6801C105.133 91.3799 106.155 91.5585 106.927 91.8245C108.196 92.2942 109.307 93.1137 110.13 94.1881C110.453 94.5225 110.645 94.9624 110.67 95.4269C110.664 95.4725 110.668 95.5189 110.68 95.5631C110.693 95.6073 110.715 95.6484 110.744 95.684C110.773 95.7196 110.809 95.7488 110.85 95.7699C110.891 95.7911 110.936 95.8037 110.981 95.8069C111.027 95.8122 111.073 95.8082 111.117 95.7953C111.161 95.7823 111.202 95.7607 111.237 95.7316C111.273 95.7025 111.302 95.6666 111.323 95.6261C111.345 95.5855 111.358 95.541 111.361 95.4953C111.407 94.9747 111.183 94.4123 110.681 93.7739C109.781 92.5909 108.56 91.6924 107.162 91.1861C106.6 90.9923 105.186 90.5933 104.259 91.0835C104.071 91.1821 103.905 91.3199 103.774 91.4877C103.643 91.6555 103.549 91.8493 103.499 92.0563C103.222 93.0975 103.993 93.6827 104.609 94.1501C104.857 94.3196 105.083 94.5201 105.281 94.7467C105.353 94.8295 105.403 94.9284 105.429 95.0349C105.454 95.1414 105.453 95.2524 105.426 95.3585C105.327 95.6283 104.955 95.7385 104.799 95.7955C104.422 95.8913 104.029 95.8986 103.649 95.8168C103.269 95.7351 102.914 95.5665 102.61 95.3243C102.171 94.893 101.825 94.3755 101.595 93.8043C101.466 93.5421 101.329 93.2723 101.181 93.0443C100.565 91.9938 99.6211 91.1742 98.4946 90.7111C97.6472 90.3767 95.7434 90.0461 95.2646 91.1557C95.1925 91.3386 95.1596 91.5346 95.1681 91.731C95.1766 91.9274 95.2263 92.1198 95.314 92.2957C95.5051 92.6634 95.7468 93.0023 96.0322 93.3027C96.435 93.7739 96.853 94.2641 96.7922 94.7353C96.7801 94.8492 96.7387 94.958 96.6721 95.0512C96.6055 95.1444 96.516 95.2189 96.4122 95.2673C96.2471 95.3128 96.0744 95.3244 95.9046 95.3015C95.7349 95.2787 95.5715 95.2218 95.4242 95.1343C94.3868 94.6593 93.813 93.7549 93.2088 92.7973L93.1138 92.6491C92.5704 91.7941 91.9548 90.8213 91.115 90.2095C90.621 89.8295 89.7964 89.5445 89.1238 89.8903C88.2878 90.3235 88.3372 91.4369 88.6298 92.2577C88.6906 92.4287 88.7628 92.5997 88.835 92.7707C88.95 93.0161 89.0453 93.2702 89.12 93.5307C89.1735 93.7054 89.1896 93.8894 89.1673 94.0707C89.145 94.2521 89.0849 94.4267 88.9908 94.5833C88.55 95.1533 87.258 94.3819 86.8742 94.1311C85.9463 93.4953 85.1852 92.6455 84.655 91.6535C84.4726 91.3267 84.3054 90.9809 84.1458 90.6427C83.9862 90.3045 83.7658 89.8827 83.553 89.5027C83.1945 88.8009 82.6734 88.195 82.033 87.7357C81.7668 87.5695 81.4523 87.4982 81.1405 87.5334C80.8286 87.5686 80.5379 87.7082 80.3154 87.9295C80.1661 88.1339 80.0701 88.3723 80.0363 88.6231C80.0024 88.874 80.0318 89.1293 80.1216 89.3659C80.2014 89.6357 80.2964 89.9017 80.3914 90.1677C80.4864 90.4337 80.5548 90.6275 80.627 90.8593C80.8626 91.6193 80.8702 92.2501 80.6498 92.5655C80.5417 92.6823 80.4077 92.7721 80.2585 92.8276C80.1093 92.883 79.9492 92.9026 79.791 92.8847C78.6298 92.9029 77.5004 92.5053 76.6066 91.7637C75.5605 90.8958 74.8353 89.7024 74.547 88.3741C74.3836 87.5837 74.49 86.6527 74.9498 86.4741C75.0335 86.4388 75.0997 86.3718 75.1339 86.2877C75.1681 86.2036 75.1675 86.1094 75.1322 86.0257C75.0969 85.9421 75.0299 85.8758 74.9458 85.8416C74.8617 85.8074 74.7675 85.808 74.6838 85.8433C73.8212 86.2233 73.6578 87.4545 73.8782 88.5261C74.1978 90.0143 75.0073 91.3523 76.1772 92.3261C77.1966 93.1719 78.4857 93.6236 79.81 93.5991C80.075 93.6158 80.3401 93.5689 80.5833 93.4625C80.8265 93.3561 81.0408 93.1932 81.2084 92.9873C81.6568 92.3527 81.4934 91.3875 81.2806 90.7073C81.2046 90.4641 81.121 90.2285 81.0336 89.9891C80.9462 89.7497 80.8512 89.4761 80.7752 89.2291C80.7226 89.1012 80.7007 88.9627 80.7113 88.8248C80.7218 88.6869 80.7645 88.5533 80.836 88.4349C80.9553 88.3376 81.1024 88.2808 81.2561 88.2726C81.4098 88.2644 81.5621 88.3053 81.691 88.3893C82.2339 88.7856 82.6732 89.307 82.9716 89.9093C83.1768 90.2665 83.3516 90.6693 83.5378 91.0189C83.724 91.3685 83.876 91.7219 84.0698 92.0677C84.6538 93.1568 85.492 94.0888 86.5132 94.7847C87.9116 95.6929 88.987 95.7993 89.5532 95.0849C89.7166 94.8481 89.824 94.5773 89.8675 94.293C89.9109 94.0086 89.8892 93.7181 89.804 93.4433C89.723 93.1463 89.6175 92.8565 89.4886 92.5769C89.4202 92.4173 89.3556 92.2615 89.2986 92.0981C89.1466 91.6763 88.987 90.8175 89.462 90.5781C89.842 90.3881 90.3816 90.5781 90.735 90.8403C91.4684 91.3761 92.0498 92.2919 92.559 93.0975L92.654 93.2419C93.2848 94.2413 93.9384 95.2749 95.1582 95.8373C95.3881 95.9646 95.6418 96.0428 95.9035 96.067C96.1651 96.0912 96.4289 96.0608 96.6782 95.9779C96.9006 95.8864 97.094 95.7363 97.2379 95.5436C97.3818 95.3509 97.4707 95.1227 97.4952 94.8835C97.575 94.1235 97.0354 93.4927 96.5642 92.9379C96.3212 92.6864 96.114 92.4025 95.9486 92.0943C95.8822 91.9953 95.8409 91.8817 95.8284 91.7631C95.8158 91.6446 95.8323 91.5248 95.8764 91.4141C96.1158 90.8593 97.556 91.0721 98.2286 91.3381C99.2152 91.7458 100.041 92.4652 100.581 93.3863C100.714 93.6105 100.839 93.8575 100.961 94.1159C101.231 94.7737 101.639 95.3659 102.158 95.8525C102.734 96.3051 103.447 96.5478 104.179 96.5403Z" fill="#FAFAFA"/>
</g>
</g>
</svg>
